%TF.GenerationSoftware,KiCad,Pcbnew,(6.0.11-0)*%
%TF.CreationDate,2023-01-30T18:50:33-05:00*%
%TF.ProjectId,Pico-Breakout,5069636f-2d42-4726-9561-6b6f75742e6b,1.0.0*%
%TF.SameCoordinates,Original*%
%TF.FileFunction,Soldermask,Bot*%
%TF.FilePolarity,Negative*%
%FSLAX46Y46*%
G04 Gerber Fmt 4.6, Leading zero omitted, Abs format (unit mm)*
G04 Created by KiCad (PCBNEW (6.0.11-0)) date 2023-01-30 18:50:33*
%MOMM*%
%LPD*%
G01*
G04 APERTURE LIST*
%ADD10O,1.700000X1.700000*%
%ADD11R,1.700000X1.700000*%
G04 APERTURE END LIST*
D10*
%TO.C,U101*%
X148590000Y-71120000D03*
X148590000Y-73660000D03*
D11*
X148590000Y-76200000D03*
D10*
X148590000Y-78740000D03*
X148590000Y-81280000D03*
X148590000Y-83820000D03*
X148590000Y-86360000D03*
D11*
X148590000Y-88900000D03*
D10*
X148590000Y-91440000D03*
X148590000Y-93980000D03*
X148590000Y-96520000D03*
X148590000Y-99060000D03*
D11*
X148590000Y-101600000D03*
D10*
X148590000Y-104140000D03*
X148590000Y-106680000D03*
X148590000Y-109220000D03*
X148590000Y-111760000D03*
D11*
X148590000Y-114300000D03*
D10*
X148590000Y-116840000D03*
X148590000Y-119380000D03*
X166370000Y-119380000D03*
X166370000Y-116840000D03*
D11*
X166370000Y-114300000D03*
D10*
X166370000Y-111760000D03*
X166370000Y-109220000D03*
X166370000Y-106680000D03*
X166370000Y-104140000D03*
D11*
X166370000Y-101600000D03*
D10*
X166370000Y-99060000D03*
X166370000Y-96520000D03*
X166370000Y-93980000D03*
X166370000Y-91440000D03*
D11*
X166370000Y-88900000D03*
D10*
X166370000Y-86360000D03*
X166370000Y-83820000D03*
X166370000Y-81280000D03*
X166370000Y-78740000D03*
D11*
X166370000Y-76200000D03*
D10*
X166370000Y-73660000D03*
X166370000Y-71120000D03*
%TD*%
D11*
%TO.C,J102*%
X173990000Y-119380000D03*
D10*
X173990000Y-116840000D03*
X173990000Y-114300000D03*
X173990000Y-111760000D03*
X173990000Y-109220000D03*
X173990000Y-106680000D03*
X173990000Y-104140000D03*
X173990000Y-101600000D03*
X173990000Y-99060000D03*
X173990000Y-96520000D03*
X173990000Y-93980000D03*
X173990000Y-91440000D03*
X173990000Y-88900000D03*
X173990000Y-86360000D03*
X173990000Y-83820000D03*
X173990000Y-81280000D03*
X173990000Y-78740000D03*
X173990000Y-76200000D03*
X173990000Y-73660000D03*
X173990000Y-71120000D03*
%TD*%
D11*
%TO.C,J101*%
X139700000Y-71130000D03*
D10*
X139700000Y-73670000D03*
X139700000Y-76210000D03*
X139700000Y-78750000D03*
X139700000Y-81290000D03*
X139700000Y-83830000D03*
X139700000Y-86370000D03*
X139700000Y-88910000D03*
X139700000Y-91450000D03*
X139700000Y-93990000D03*
X139700000Y-96530000D03*
X139700000Y-99070000D03*
X139700000Y-101610000D03*
X139700000Y-104150000D03*
X139700000Y-106690000D03*
X139700000Y-109230000D03*
X139700000Y-111770000D03*
X139700000Y-114310000D03*
X139700000Y-116850000D03*
X139700000Y-119390000D03*
%TD*%
M02*
