M48
; DRILL file {KiCad (6.0.11-0)} date Monday, January 30, 2023 at 06:50:33 PM
; FORMAT={-:-/ absolute / inch / decimal}
; #@! TF.CreationDate,2023-01-30T18:50:33-05:00
; #@! TF.GenerationSoftware,Kicad,Pcbnew,(6.0.11-0)
; #@! TF.FileFunction,Plated,1,2,PTH
FMAT,2
INCH
; #@! TA.AperFunction,Plated,PTH,ComponentDrill
T1C0.0394
; #@! TA.AperFunction,Plated,PTH,ComponentDrill
T2C0.0402
%
G90
G05
T1
X5.5Y-2.8004
X5.5Y-2.9004
X5.5Y-3.0004
X5.5Y-3.1004
X5.5Y-3.2004
X5.5Y-3.3004
X5.5Y-3.4004
X5.5Y-3.5004
X5.5Y-3.6004
X5.5Y-3.7004
X5.5Y-3.8004
X5.5Y-3.9004
X5.5Y-4.0004
X5.5Y-4.1004
X5.5Y-4.2004
X5.5Y-4.3004
X5.5Y-4.4004
X5.5Y-4.5004
X5.5Y-4.6004
X5.5Y-4.7004
X6.85Y-2.8
X6.85Y-2.9
X6.85Y-3.0
X6.85Y-3.1
X6.85Y-3.2
X6.85Y-3.3
X6.85Y-3.4
X6.85Y-3.5
X6.85Y-3.6
X6.85Y-3.7
X6.85Y-3.8
X6.85Y-3.9
X6.85Y-4.0
X6.85Y-4.1
X6.85Y-4.2
X6.85Y-4.3
X6.85Y-4.4
X6.85Y-4.5
X6.85Y-4.6
X6.85Y-4.7
T2
X5.85Y-2.8
X5.85Y-2.9
X5.85Y-3.0
X5.85Y-3.1
X5.85Y-3.2
X5.85Y-3.3
X5.85Y-3.4
X5.85Y-3.5
X5.85Y-3.6
X5.85Y-3.7
X5.85Y-3.8
X5.85Y-3.9
X5.85Y-4.0
X5.85Y-4.1
X5.85Y-4.2
X5.85Y-4.3
X5.85Y-4.4
X5.85Y-4.5
X5.85Y-4.6
X5.85Y-4.7
X6.55Y-2.8
X6.55Y-2.9
X6.55Y-3.0
X6.55Y-3.1
X6.55Y-3.2
X6.55Y-3.3
X6.55Y-3.4
X6.55Y-3.5
X6.55Y-3.6
X6.55Y-3.7
X6.55Y-3.8
X6.55Y-3.9
X6.55Y-4.0
X6.55Y-4.1
X6.55Y-4.2
X6.55Y-4.3
X6.55Y-4.4
X6.55Y-4.5
X6.55Y-4.6
X6.55Y-4.7
T0
M30
