%TF.GenerationSoftware,KiCad,Pcbnew,(6.0.11-0)*%
%TF.CreationDate,2023-01-30T18:50:33-05:00*%
%TF.ProjectId,Pico-Breakout,5069636f-2d42-4726-9561-6b6f75742e6b,1.0.0*%
%TF.SameCoordinates,Original*%
%TF.FileFunction,Copper,L2,Bot*%
%TF.FilePolarity,Positive*%
%FSLAX46Y46*%
G04 Gerber Fmt 4.6, Leading zero omitted, Abs format (unit mm)*
G04 Created by KiCad (PCBNEW (6.0.11-0)) date 2023-01-30 18:50:33*
%MOMM*%
%LPD*%
G01*
G04 APERTURE LIST*
%TA.AperFunction,ComponentPad*%
%ADD10O,1.700000X1.700000*%
%TD*%
%TA.AperFunction,ComponentPad*%
%ADD11R,1.700000X1.700000*%
%TD*%
G04 APERTURE END LIST*
D10*
%TO.P,U101,1,GPIO0*%
%TO.N,Net-(J101-Pad1)*%
X148590000Y-71120000D03*
%TO.P,U101,2,GPIO1*%
%TO.N,Net-(J101-Pad2)*%
X148590000Y-73660000D03*
D11*
%TO.P,U101,3,GND*%
%TO.N,GND*%
X148590000Y-76200000D03*
D10*
%TO.P,U101,4,GPIO2*%
%TO.N,Net-(J101-Pad4)*%
X148590000Y-78740000D03*
%TO.P,U101,5,GPIO3*%
%TO.N,Net-(J101-Pad5)*%
X148590000Y-81280000D03*
%TO.P,U101,6,GPIO4*%
%TO.N,Net-(J101-Pad6)*%
X148590000Y-83820000D03*
%TO.P,U101,7,GPIO5*%
%TO.N,Net-(J101-Pad7)*%
X148590000Y-86360000D03*
D11*
%TO.P,U101,8,GND*%
%TO.N,GND*%
X148590000Y-88900000D03*
D10*
%TO.P,U101,9,GPIO6*%
%TO.N,Net-(J101-Pad9)*%
X148590000Y-91440000D03*
%TO.P,U101,10,GPIO7*%
%TO.N,Net-(J101-Pad10)*%
X148590000Y-93980000D03*
%TO.P,U101,11,GPIO8*%
%TO.N,Net-(J101-Pad11)*%
X148590000Y-96520000D03*
%TO.P,U101,12,GPIO9*%
%TO.N,Net-(J101-Pad12)*%
X148590000Y-99060000D03*
D11*
%TO.P,U101,13,GND*%
%TO.N,GND*%
X148590000Y-101600000D03*
D10*
%TO.P,U101,14,GPIO10*%
%TO.N,Net-(J101-Pad14)*%
X148590000Y-104140000D03*
%TO.P,U101,15,GPIO11*%
%TO.N,Net-(J101-Pad15)*%
X148590000Y-106680000D03*
%TO.P,U101,16,GPIO12*%
%TO.N,Net-(J101-Pad16)*%
X148590000Y-109220000D03*
%TO.P,U101,17,GPIO13*%
%TO.N,Net-(J101-Pad17)*%
X148590000Y-111760000D03*
D11*
%TO.P,U101,18,GND*%
%TO.N,GND*%
X148590000Y-114300000D03*
D10*
%TO.P,U101,19,GPIO14*%
%TO.N,Net-(J101-Pad19)*%
X148590000Y-116840000D03*
%TO.P,U101,20,GPIO15*%
%TO.N,Net-(J101-Pad20)*%
X148590000Y-119380000D03*
%TO.P,U101,21,GPIO16*%
%TO.N,Net-(J102-Pad1)*%
X166370000Y-119380000D03*
%TO.P,U101,22,GPIO17*%
%TO.N,Net-(J102-Pad2)*%
X166370000Y-116840000D03*
D11*
%TO.P,U101,23,GND*%
%TO.N,GND*%
X166370000Y-114300000D03*
D10*
%TO.P,U101,24,GPIO18*%
%TO.N,Net-(J102-Pad4)*%
X166370000Y-111760000D03*
%TO.P,U101,25,GPIO19*%
%TO.N,Net-(J102-Pad5)*%
X166370000Y-109220000D03*
%TO.P,U101,26,GPIO20*%
%TO.N,Net-(J102-Pad6)*%
X166370000Y-106680000D03*
%TO.P,U101,27,GPIO21*%
%TO.N,Net-(J102-Pad7)*%
X166370000Y-104140000D03*
D11*
%TO.P,U101,28,GND*%
%TO.N,GND*%
X166370000Y-101600000D03*
D10*
%TO.P,U101,29,GPIO22*%
%TO.N,Net-(J102-Pad9)*%
X166370000Y-99060000D03*
%TO.P,U101,30,RUN*%
%TO.N,Net-(J102-Pad10)*%
X166370000Y-96520000D03*
%TO.P,U101,31,GPIO26_ADC0*%
%TO.N,Net-(J102-Pad11)*%
X166370000Y-93980000D03*
%TO.P,U101,32,GPIO27_ADC1*%
%TO.N,Net-(J102-Pad12)*%
X166370000Y-91440000D03*
D11*
%TO.P,U101,33,AGND*%
%TO.N,Net-(J102-Pad13)*%
X166370000Y-88900000D03*
D10*
%TO.P,U101,34,GPIO28_ADC2*%
%TO.N,Net-(J102-Pad14)*%
X166370000Y-86360000D03*
%TO.P,U101,35,ADC_VREF*%
%TO.N,Net-(J102-Pad15)*%
X166370000Y-83820000D03*
%TO.P,U101,36,3V3*%
%TO.N,+3V3*%
X166370000Y-81280000D03*
%TO.P,U101,37,3V3_EN*%
%TO.N,Net-(J102-Pad17)*%
X166370000Y-78740000D03*
D11*
%TO.P,U101,38,GND*%
%TO.N,GND*%
X166370000Y-76200000D03*
D10*
%TO.P,U101,39,VSYS*%
%TO.N,Net-(J102-Pad19)*%
X166370000Y-73660000D03*
%TO.P,U101,40,VBUS*%
%TO.N,Net-(J102-Pad20)*%
X166370000Y-71120000D03*
%TD*%
D11*
%TO.P,J102,1,Pin_1*%
%TO.N,Net-(J102-Pad1)*%
X173990000Y-119380000D03*
D10*
%TO.P,J102,2,Pin_2*%
%TO.N,Net-(J102-Pad2)*%
X173990000Y-116840000D03*
%TO.P,J102,3,Pin_3*%
%TO.N,GND*%
X173990000Y-114300000D03*
%TO.P,J102,4,Pin_4*%
%TO.N,Net-(J102-Pad4)*%
X173990000Y-111760000D03*
%TO.P,J102,5,Pin_5*%
%TO.N,Net-(J102-Pad5)*%
X173990000Y-109220000D03*
%TO.P,J102,6,Pin_6*%
%TO.N,Net-(J102-Pad6)*%
X173990000Y-106680000D03*
%TO.P,J102,7,Pin_7*%
%TO.N,Net-(J102-Pad7)*%
X173990000Y-104140000D03*
%TO.P,J102,8,Pin_8*%
%TO.N,GND*%
X173990000Y-101600000D03*
%TO.P,J102,9,Pin_9*%
%TO.N,Net-(J102-Pad9)*%
X173990000Y-99060000D03*
%TO.P,J102,10,Pin_10*%
%TO.N,Net-(J102-Pad10)*%
X173990000Y-96520000D03*
%TO.P,J102,11,Pin_11*%
%TO.N,Net-(J102-Pad11)*%
X173990000Y-93980000D03*
%TO.P,J102,12,Pin_12*%
%TO.N,Net-(J102-Pad12)*%
X173990000Y-91440000D03*
%TO.P,J102,13,Pin_13*%
%TO.N,Net-(J102-Pad13)*%
X173990000Y-88900000D03*
%TO.P,J102,14,Pin_14*%
%TO.N,Net-(J102-Pad14)*%
X173990000Y-86360000D03*
%TO.P,J102,15,Pin_15*%
%TO.N,Net-(J102-Pad15)*%
X173990000Y-83820000D03*
%TO.P,J102,16,Pin_16*%
%TO.N,+3V3*%
X173990000Y-81280000D03*
%TO.P,J102,17,Pin_17*%
%TO.N,Net-(J102-Pad17)*%
X173990000Y-78740000D03*
%TO.P,J102,18,Pin_18*%
%TO.N,GND*%
X173990000Y-76200000D03*
%TO.P,J102,19,Pin_19*%
%TO.N,Net-(J102-Pad19)*%
X173990000Y-73660000D03*
%TO.P,J102,20,Pin_20*%
%TO.N,Net-(J102-Pad20)*%
X173990000Y-71120000D03*
%TD*%
D11*
%TO.P,J101,1,Pin_1*%
%TO.N,Net-(J101-Pad1)*%
X139700000Y-71130000D03*
D10*
%TO.P,J101,2,Pin_2*%
%TO.N,Net-(J101-Pad2)*%
X139700000Y-73670000D03*
%TO.P,J101,3,Pin_3*%
%TO.N,GND*%
X139700000Y-76210000D03*
%TO.P,J101,4,Pin_4*%
%TO.N,Net-(J101-Pad4)*%
X139700000Y-78750000D03*
%TO.P,J101,5,Pin_5*%
%TO.N,Net-(J101-Pad5)*%
X139700000Y-81290000D03*
%TO.P,J101,6,Pin_6*%
%TO.N,Net-(J101-Pad6)*%
X139700000Y-83830000D03*
%TO.P,J101,7,Pin_7*%
%TO.N,Net-(J101-Pad7)*%
X139700000Y-86370000D03*
%TO.P,J101,8,Pin_8*%
%TO.N,GND*%
X139700000Y-88910000D03*
%TO.P,J101,9,Pin_9*%
%TO.N,Net-(J101-Pad9)*%
X139700000Y-91450000D03*
%TO.P,J101,10,Pin_10*%
%TO.N,Net-(J101-Pad10)*%
X139700000Y-93990000D03*
%TO.P,J101,11,Pin_11*%
%TO.N,Net-(J101-Pad11)*%
X139700000Y-96530000D03*
%TO.P,J101,12,Pin_12*%
%TO.N,Net-(J101-Pad12)*%
X139700000Y-99070000D03*
%TO.P,J101,13,Pin_13*%
%TO.N,GND*%
X139700000Y-101610000D03*
%TO.P,J101,14,Pin_14*%
%TO.N,Net-(J101-Pad14)*%
X139700000Y-104150000D03*
%TO.P,J101,15,Pin_15*%
%TO.N,Net-(J101-Pad15)*%
X139700000Y-106690000D03*
%TO.P,J101,16,Pin_16*%
%TO.N,Net-(J101-Pad16)*%
X139700000Y-109230000D03*
%TO.P,J101,17,Pin_17*%
%TO.N,Net-(J101-Pad17)*%
X139700000Y-111770000D03*
%TO.P,J101,18,Pin_18*%
%TO.N,GND*%
X139700000Y-114310000D03*
%TO.P,J101,19,Pin_19*%
%TO.N,Net-(J101-Pad19)*%
X139700000Y-116850000D03*
%TO.P,J101,20,Pin_20*%
%TO.N,Net-(J101-Pad20)*%
X139700000Y-119390000D03*
%TD*%
%TA.AperFunction,Conductor*%
%TO.N,GND*%
G36*
X147883622Y-69743502D02*
G01*
X147930115Y-69797158D01*
X147940219Y-69867432D01*
X147910725Y-69932012D01*
X147873683Y-69961262D01*
X147863607Y-69966507D01*
X147859474Y-69969610D01*
X147859471Y-69969612D01*
X147763455Y-70041703D01*
X147684965Y-70100635D01*
X147530629Y-70262138D01*
X147404743Y-70446680D01*
X147310688Y-70649305D01*
X147250989Y-70864570D01*
X147227251Y-71086695D01*
X147227548Y-71091848D01*
X147227548Y-71091851D01*
X147233011Y-71186590D01*
X147240110Y-71309715D01*
X147241247Y-71314761D01*
X147241248Y-71314767D01*
X147261119Y-71402939D01*
X147289222Y-71527639D01*
X147373266Y-71734616D01*
X147489987Y-71925088D01*
X147636250Y-72093938D01*
X147808126Y-72236632D01*
X147878595Y-72277811D01*
X147881445Y-72279476D01*
X147930169Y-72331114D01*
X147943240Y-72400897D01*
X147916509Y-72466669D01*
X147876055Y-72500027D01*
X147863607Y-72506507D01*
X147859474Y-72509610D01*
X147859471Y-72509612D01*
X147722248Y-72612642D01*
X147684965Y-72640635D01*
X147530629Y-72802138D01*
X147527715Y-72806410D01*
X147527714Y-72806411D01*
X147515404Y-72824457D01*
X147404743Y-72986680D01*
X147310688Y-73189305D01*
X147250989Y-73404570D01*
X147227251Y-73626695D01*
X147227548Y-73631848D01*
X147227548Y-73631851D01*
X147233011Y-73726590D01*
X147240110Y-73849715D01*
X147241247Y-73854761D01*
X147241248Y-73854767D01*
X147261119Y-73942939D01*
X147289222Y-74067639D01*
X147373266Y-74274616D01*
X147375965Y-74279020D01*
X147473405Y-74438028D01*
X147489987Y-74465088D01*
X147636250Y-74633938D01*
X147640225Y-74637238D01*
X147640231Y-74637244D01*
X147645425Y-74641556D01*
X147685059Y-74700460D01*
X147686555Y-74771441D01*
X147649439Y-74831962D01*
X147609168Y-74856480D01*
X147501946Y-74896676D01*
X147486351Y-74905214D01*
X147384276Y-74981715D01*
X147371715Y-74994276D01*
X147295214Y-75096351D01*
X147286676Y-75111946D01*
X147241522Y-75232394D01*
X147237895Y-75247649D01*
X147232369Y-75298514D01*
X147232000Y-75305328D01*
X147232000Y-75927885D01*
X147236475Y-75943124D01*
X147237865Y-75944329D01*
X147245548Y-75946000D01*
X149929884Y-75946000D01*
X149945123Y-75941525D01*
X149946328Y-75940135D01*
X149947999Y-75932452D01*
X149947999Y-75305331D01*
X149947629Y-75298510D01*
X149942105Y-75247648D01*
X149938479Y-75232396D01*
X149893324Y-75111946D01*
X149884786Y-75096351D01*
X149808285Y-74994276D01*
X149795724Y-74981715D01*
X149693649Y-74905214D01*
X149678054Y-74896676D01*
X149567813Y-74855348D01*
X149511049Y-74812706D01*
X149486349Y-74746145D01*
X149501557Y-74676796D01*
X149523104Y-74648115D01*
X149624430Y-74547144D01*
X149624440Y-74547132D01*
X149628096Y-74543489D01*
X149687594Y-74460689D01*
X149755435Y-74366277D01*
X149758453Y-74362077D01*
X149767979Y-74342804D01*
X149855136Y-74166453D01*
X149855137Y-74166451D01*
X149857430Y-74161811D01*
X149922370Y-73948069D01*
X149951529Y-73726590D01*
X149951611Y-73723240D01*
X149953074Y-73663365D01*
X149953074Y-73663361D01*
X149953156Y-73660000D01*
X149934852Y-73437361D01*
X149880431Y-73220702D01*
X149791354Y-73015840D01*
X149679291Y-72842617D01*
X149672822Y-72832617D01*
X149672820Y-72832614D01*
X149670014Y-72828277D01*
X149519670Y-72663051D01*
X149515619Y-72659852D01*
X149515615Y-72659848D01*
X149348414Y-72527800D01*
X149348410Y-72527798D01*
X149344359Y-72524598D01*
X149303053Y-72501796D01*
X149253084Y-72451364D01*
X149238312Y-72381921D01*
X149263428Y-72315516D01*
X149290780Y-72288909D01*
X149334603Y-72257650D01*
X149469860Y-72161173D01*
X149628096Y-72003489D01*
X149687594Y-71920689D01*
X149755435Y-71826277D01*
X149758453Y-71822077D01*
X149779836Y-71778813D01*
X149855136Y-71626453D01*
X149855137Y-71626451D01*
X149857430Y-71621811D01*
X149922370Y-71408069D01*
X149951529Y-71186590D01*
X149953156Y-71120000D01*
X149934852Y-70897361D01*
X149880431Y-70680702D01*
X149791354Y-70475840D01*
X149670014Y-70288277D01*
X149519670Y-70123051D01*
X149515619Y-70119852D01*
X149515615Y-70119848D01*
X149348414Y-69987800D01*
X149348410Y-69987798D01*
X149344359Y-69984598D01*
X149339835Y-69982100D01*
X149339831Y-69982098D01*
X149299453Y-69959808D01*
X149249483Y-69909376D01*
X149234711Y-69839933D01*
X149259827Y-69773528D01*
X149316858Y-69731243D01*
X149360347Y-69723500D01*
X165595501Y-69723500D01*
X165663622Y-69743502D01*
X165710115Y-69797158D01*
X165720219Y-69867432D01*
X165690725Y-69932012D01*
X165653683Y-69961262D01*
X165643607Y-69966507D01*
X165639474Y-69969610D01*
X165639471Y-69969612D01*
X165543455Y-70041703D01*
X165464965Y-70100635D01*
X165310629Y-70262138D01*
X165184743Y-70446680D01*
X165090688Y-70649305D01*
X165030989Y-70864570D01*
X165007251Y-71086695D01*
X165007548Y-71091848D01*
X165007548Y-71091851D01*
X165013011Y-71186590D01*
X165020110Y-71309715D01*
X165021247Y-71314761D01*
X165021248Y-71314767D01*
X165041119Y-71402939D01*
X165069222Y-71527639D01*
X165153266Y-71734616D01*
X165269987Y-71925088D01*
X165416250Y-72093938D01*
X165588126Y-72236632D01*
X165658595Y-72277811D01*
X165661445Y-72279476D01*
X165710169Y-72331114D01*
X165723240Y-72400897D01*
X165696509Y-72466669D01*
X165656055Y-72500027D01*
X165643607Y-72506507D01*
X165639474Y-72509610D01*
X165639471Y-72509612D01*
X165502248Y-72612642D01*
X165464965Y-72640635D01*
X165310629Y-72802138D01*
X165307715Y-72806410D01*
X165307714Y-72806411D01*
X165295404Y-72824457D01*
X165184743Y-72986680D01*
X165090688Y-73189305D01*
X165030989Y-73404570D01*
X165007251Y-73626695D01*
X165007548Y-73631848D01*
X165007548Y-73631851D01*
X165013011Y-73726590D01*
X165020110Y-73849715D01*
X165021247Y-73854761D01*
X165021248Y-73854767D01*
X165041119Y-73942939D01*
X165069222Y-74067639D01*
X165153266Y-74274616D01*
X165155965Y-74279020D01*
X165253405Y-74438028D01*
X165269987Y-74465088D01*
X165416250Y-74633938D01*
X165420225Y-74637238D01*
X165420231Y-74637244D01*
X165425425Y-74641556D01*
X165465059Y-74700460D01*
X165466555Y-74771441D01*
X165429439Y-74831962D01*
X165389168Y-74856480D01*
X165281946Y-74896676D01*
X165266351Y-74905214D01*
X165164276Y-74981715D01*
X165151715Y-74994276D01*
X165075214Y-75096351D01*
X165066676Y-75111946D01*
X165021522Y-75232394D01*
X165017895Y-75247649D01*
X165012369Y-75298514D01*
X165012000Y-75305328D01*
X165012000Y-75927885D01*
X165016475Y-75943124D01*
X165017865Y-75944329D01*
X165025548Y-75946000D01*
X167709884Y-75946000D01*
X167725123Y-75941525D01*
X167726328Y-75940135D01*
X167727999Y-75932452D01*
X167727999Y-75305331D01*
X167727629Y-75298510D01*
X167722105Y-75247648D01*
X167718479Y-75232396D01*
X167673324Y-75111946D01*
X167664786Y-75096351D01*
X167588285Y-74994276D01*
X167575724Y-74981715D01*
X167473649Y-74905214D01*
X167458054Y-74896676D01*
X167347813Y-74855348D01*
X167291049Y-74812706D01*
X167266349Y-74746145D01*
X167281557Y-74676796D01*
X167303104Y-74648115D01*
X167404430Y-74547144D01*
X167404440Y-74547132D01*
X167408096Y-74543489D01*
X167467594Y-74460689D01*
X167535435Y-74366277D01*
X167538453Y-74362077D01*
X167547979Y-74342804D01*
X167635136Y-74166453D01*
X167635137Y-74166451D01*
X167637430Y-74161811D01*
X167702370Y-73948069D01*
X167731529Y-73726590D01*
X167731611Y-73723240D01*
X167733074Y-73663365D01*
X167733074Y-73663361D01*
X167733156Y-73660000D01*
X167714852Y-73437361D01*
X167660431Y-73220702D01*
X167571354Y-73015840D01*
X167459291Y-72842617D01*
X167452822Y-72832617D01*
X167452820Y-72832614D01*
X167450014Y-72828277D01*
X167299670Y-72663051D01*
X167295619Y-72659852D01*
X167295615Y-72659848D01*
X167128414Y-72527800D01*
X167128410Y-72527798D01*
X167124359Y-72524598D01*
X167083053Y-72501796D01*
X167033084Y-72451364D01*
X167018312Y-72381921D01*
X167043428Y-72315516D01*
X167070780Y-72288909D01*
X167114603Y-72257650D01*
X167249860Y-72161173D01*
X167408096Y-72003489D01*
X167467594Y-71920689D01*
X167535435Y-71826277D01*
X167538453Y-71822077D01*
X167559836Y-71778813D01*
X167635136Y-71626453D01*
X167635137Y-71626451D01*
X167637430Y-71621811D01*
X167702370Y-71408069D01*
X167731529Y-71186590D01*
X167733156Y-71120000D01*
X167714852Y-70897361D01*
X167660431Y-70680702D01*
X167571354Y-70475840D01*
X167450014Y-70288277D01*
X167299670Y-70123051D01*
X167295619Y-70119852D01*
X167295615Y-70119848D01*
X167128414Y-69987800D01*
X167128410Y-69987798D01*
X167124359Y-69984598D01*
X167119835Y-69982100D01*
X167119831Y-69982098D01*
X167079453Y-69959808D01*
X167029483Y-69909376D01*
X167014711Y-69839933D01*
X167039827Y-69773528D01*
X167096858Y-69731243D01*
X167140347Y-69723500D01*
X173215501Y-69723500D01*
X173283622Y-69743502D01*
X173330115Y-69797158D01*
X173340219Y-69867432D01*
X173310725Y-69932012D01*
X173273683Y-69961262D01*
X173263607Y-69966507D01*
X173259474Y-69969610D01*
X173259471Y-69969612D01*
X173163455Y-70041703D01*
X173084965Y-70100635D01*
X172930629Y-70262138D01*
X172804743Y-70446680D01*
X172710688Y-70649305D01*
X172650989Y-70864570D01*
X172627251Y-71086695D01*
X172627548Y-71091848D01*
X172627548Y-71091851D01*
X172633011Y-71186590D01*
X172640110Y-71309715D01*
X172641247Y-71314761D01*
X172641248Y-71314767D01*
X172661119Y-71402939D01*
X172689222Y-71527639D01*
X172773266Y-71734616D01*
X172889987Y-71925088D01*
X173036250Y-72093938D01*
X173208126Y-72236632D01*
X173278595Y-72277811D01*
X173281445Y-72279476D01*
X173330169Y-72331114D01*
X173343240Y-72400897D01*
X173316509Y-72466669D01*
X173276055Y-72500027D01*
X173263607Y-72506507D01*
X173259474Y-72509610D01*
X173259471Y-72509612D01*
X173122248Y-72612642D01*
X173084965Y-72640635D01*
X172930629Y-72802138D01*
X172927715Y-72806410D01*
X172927714Y-72806411D01*
X172915404Y-72824457D01*
X172804743Y-72986680D01*
X172710688Y-73189305D01*
X172650989Y-73404570D01*
X172627251Y-73626695D01*
X172627548Y-73631848D01*
X172627548Y-73631851D01*
X172633011Y-73726590D01*
X172640110Y-73849715D01*
X172641247Y-73854761D01*
X172641248Y-73854767D01*
X172661119Y-73942939D01*
X172689222Y-74067639D01*
X172773266Y-74274616D01*
X172775965Y-74279020D01*
X172873405Y-74438028D01*
X172889987Y-74465088D01*
X173036250Y-74633938D01*
X173208126Y-74776632D01*
X173225239Y-74786632D01*
X173281955Y-74819774D01*
X173330679Y-74871412D01*
X173343750Y-74941195D01*
X173317019Y-75006967D01*
X173276562Y-75040327D01*
X173268457Y-75044546D01*
X173259738Y-75050036D01*
X173089433Y-75177905D01*
X173081726Y-75184748D01*
X172934590Y-75338717D01*
X172928104Y-75346727D01*
X172808098Y-75522649D01*
X172803000Y-75531623D01*
X172713338Y-75724783D01*
X172709775Y-75734470D01*
X172654389Y-75934183D01*
X172655912Y-75942607D01*
X172668292Y-75946000D01*
X174118000Y-75946000D01*
X174186121Y-75966002D01*
X174232614Y-76019658D01*
X174244000Y-76072000D01*
X174244000Y-76328000D01*
X174223998Y-76396121D01*
X174170342Y-76442614D01*
X174118000Y-76454000D01*
X172673225Y-76454000D01*
X172659694Y-76457973D01*
X172658257Y-76467966D01*
X172688565Y-76602446D01*
X172691645Y-76612275D01*
X172771770Y-76809603D01*
X172776413Y-76818794D01*
X172887694Y-77000388D01*
X172893777Y-77008699D01*
X173033213Y-77169667D01*
X173040580Y-77176883D01*
X173204434Y-77312916D01*
X173212881Y-77318831D01*
X173281969Y-77359203D01*
X173330693Y-77410842D01*
X173343764Y-77480625D01*
X173317033Y-77546396D01*
X173276584Y-77579752D01*
X173263607Y-77586507D01*
X173259474Y-77589610D01*
X173259471Y-77589612D01*
X173089100Y-77717530D01*
X173084965Y-77720635D01*
X172930629Y-77882138D01*
X172927715Y-77886410D01*
X172927714Y-77886411D01*
X172915409Y-77904450D01*
X172804743Y-78066680D01*
X172710688Y-78269305D01*
X172650989Y-78484570D01*
X172627251Y-78706695D01*
X172627548Y-78711848D01*
X172627548Y-78711851D01*
X172633011Y-78806590D01*
X172640110Y-78929715D01*
X172641247Y-78934761D01*
X172641248Y-78934767D01*
X172661119Y-79022939D01*
X172689222Y-79147639D01*
X172773266Y-79354616D01*
X172775965Y-79359020D01*
X172873405Y-79518028D01*
X172889987Y-79545088D01*
X173036250Y-79713938D01*
X173208126Y-79856632D01*
X173225239Y-79866632D01*
X173281445Y-79899476D01*
X173330169Y-79951114D01*
X173343240Y-80020897D01*
X173316509Y-80086669D01*
X173276055Y-80120027D01*
X173263607Y-80126507D01*
X173259474Y-80129610D01*
X173259471Y-80129612D01*
X173089100Y-80257530D01*
X173084965Y-80260635D01*
X172930629Y-80422138D01*
X172927715Y-80426410D01*
X172927714Y-80426411D01*
X172915404Y-80444457D01*
X172804743Y-80606680D01*
X172710688Y-80809305D01*
X172650989Y-81024570D01*
X172627251Y-81246695D01*
X172627548Y-81251848D01*
X172627548Y-81251851D01*
X172633011Y-81346590D01*
X172640110Y-81469715D01*
X172641247Y-81474761D01*
X172641248Y-81474767D01*
X172661119Y-81562939D01*
X172689222Y-81687639D01*
X172773266Y-81894616D01*
X172775965Y-81899020D01*
X172873405Y-82058028D01*
X172889987Y-82085088D01*
X173036250Y-82253938D01*
X173208126Y-82396632D01*
X173225239Y-82406632D01*
X173281445Y-82439476D01*
X173330169Y-82491114D01*
X173343240Y-82560897D01*
X173316509Y-82626669D01*
X173276055Y-82660027D01*
X173263607Y-82666507D01*
X173259474Y-82669610D01*
X173259471Y-82669612D01*
X173089100Y-82797530D01*
X173084965Y-82800635D01*
X172930629Y-82962138D01*
X172927715Y-82966410D01*
X172927714Y-82966411D01*
X172915404Y-82984457D01*
X172804743Y-83146680D01*
X172710688Y-83349305D01*
X172650989Y-83564570D01*
X172627251Y-83786695D01*
X172627548Y-83791848D01*
X172627548Y-83791851D01*
X172633011Y-83886590D01*
X172640110Y-84009715D01*
X172641247Y-84014761D01*
X172641248Y-84014767D01*
X172661119Y-84102939D01*
X172689222Y-84227639D01*
X172773266Y-84434616D01*
X172775965Y-84439020D01*
X172873405Y-84598028D01*
X172889987Y-84625088D01*
X173036250Y-84793938D01*
X173208126Y-84936632D01*
X173225239Y-84946632D01*
X173281445Y-84979476D01*
X173330169Y-85031114D01*
X173343240Y-85100897D01*
X173316509Y-85166669D01*
X173276055Y-85200027D01*
X173263607Y-85206507D01*
X173259474Y-85209610D01*
X173259471Y-85209612D01*
X173089100Y-85337530D01*
X173084965Y-85340635D01*
X172930629Y-85502138D01*
X172927715Y-85506410D01*
X172927714Y-85506411D01*
X172915404Y-85524457D01*
X172804743Y-85686680D01*
X172710688Y-85889305D01*
X172650989Y-86104570D01*
X172627251Y-86326695D01*
X172627548Y-86331848D01*
X172627548Y-86331851D01*
X172633011Y-86426590D01*
X172640110Y-86549715D01*
X172641247Y-86554761D01*
X172641248Y-86554767D01*
X172661119Y-86642939D01*
X172689222Y-86767639D01*
X172773266Y-86974616D01*
X172775965Y-86979020D01*
X172873405Y-87138028D01*
X172889987Y-87165088D01*
X173036250Y-87333938D01*
X173208126Y-87476632D01*
X173225239Y-87486632D01*
X173281445Y-87519476D01*
X173330169Y-87571114D01*
X173343240Y-87640897D01*
X173316509Y-87706669D01*
X173276055Y-87740027D01*
X173263607Y-87746507D01*
X173259474Y-87749610D01*
X173259471Y-87749612D01*
X173176450Y-87811946D01*
X173084965Y-87880635D01*
X172930629Y-88042138D01*
X172804743Y-88226680D01*
X172710688Y-88429305D01*
X172650989Y-88644570D01*
X172650440Y-88649707D01*
X172649456Y-88658913D01*
X172627251Y-88866695D01*
X172640110Y-89089715D01*
X172641247Y-89094761D01*
X172641248Y-89094767D01*
X172658680Y-89172115D01*
X172689222Y-89307639D01*
X172773266Y-89514616D01*
X172816501Y-89585170D01*
X172872818Y-89677070D01*
X172889987Y-89705088D01*
X173036250Y-89873938D01*
X173208126Y-90016632D01*
X173278595Y-90057811D01*
X173281445Y-90059476D01*
X173330169Y-90111114D01*
X173343240Y-90180897D01*
X173316509Y-90246669D01*
X173276055Y-90280027D01*
X173263607Y-90286507D01*
X173259474Y-90289610D01*
X173259471Y-90289612D01*
X173135567Y-90382642D01*
X173084965Y-90420635D01*
X172930629Y-90582138D01*
X172927715Y-90586410D01*
X172927714Y-90586411D01*
X172915409Y-90604450D01*
X172804743Y-90766680D01*
X172710688Y-90969305D01*
X172650989Y-91184570D01*
X172627251Y-91406695D01*
X172627548Y-91411848D01*
X172627548Y-91411851D01*
X172633011Y-91506590D01*
X172640110Y-91629715D01*
X172641247Y-91634761D01*
X172641248Y-91634767D01*
X172661119Y-91722939D01*
X172689222Y-91847639D01*
X172773266Y-92054616D01*
X172775965Y-92059020D01*
X172873405Y-92218028D01*
X172889987Y-92245088D01*
X173036250Y-92413938D01*
X173208126Y-92556632D01*
X173225239Y-92566632D01*
X173281445Y-92599476D01*
X173330169Y-92651114D01*
X173343240Y-92720897D01*
X173316509Y-92786669D01*
X173276055Y-92820027D01*
X173263607Y-92826507D01*
X173259474Y-92829610D01*
X173259471Y-92829612D01*
X173089100Y-92957530D01*
X173084965Y-92960635D01*
X172930629Y-93122138D01*
X172927715Y-93126410D01*
X172927714Y-93126411D01*
X172915404Y-93144457D01*
X172804743Y-93306680D01*
X172710688Y-93509305D01*
X172650989Y-93724570D01*
X172627251Y-93946695D01*
X172627548Y-93951848D01*
X172627548Y-93951851D01*
X172633011Y-94046590D01*
X172640110Y-94169715D01*
X172641247Y-94174761D01*
X172641248Y-94174767D01*
X172661119Y-94262939D01*
X172689222Y-94387639D01*
X172773266Y-94594616D01*
X172775965Y-94599020D01*
X172873405Y-94758028D01*
X172889987Y-94785088D01*
X173036250Y-94953938D01*
X173208126Y-95096632D01*
X173225239Y-95106632D01*
X173281445Y-95139476D01*
X173330169Y-95191114D01*
X173343240Y-95260897D01*
X173316509Y-95326669D01*
X173276055Y-95360027D01*
X173263607Y-95366507D01*
X173259474Y-95369610D01*
X173259471Y-95369612D01*
X173089100Y-95497530D01*
X173084965Y-95500635D01*
X172930629Y-95662138D01*
X172927715Y-95666410D01*
X172927714Y-95666411D01*
X172915404Y-95684457D01*
X172804743Y-95846680D01*
X172710688Y-96049305D01*
X172650989Y-96264570D01*
X172627251Y-96486695D01*
X172627548Y-96491848D01*
X172627548Y-96491851D01*
X172633011Y-96586590D01*
X172640110Y-96709715D01*
X172641247Y-96714761D01*
X172641248Y-96714767D01*
X172661119Y-96802939D01*
X172689222Y-96927639D01*
X172773266Y-97134616D01*
X172775965Y-97139020D01*
X172873405Y-97298028D01*
X172889987Y-97325088D01*
X173036250Y-97493938D01*
X173208126Y-97636632D01*
X173225239Y-97646632D01*
X173281445Y-97679476D01*
X173330169Y-97731114D01*
X173343240Y-97800897D01*
X173316509Y-97866669D01*
X173276055Y-97900027D01*
X173263607Y-97906507D01*
X173259474Y-97909610D01*
X173259471Y-97909612D01*
X173089100Y-98037530D01*
X173084965Y-98040635D01*
X172930629Y-98202138D01*
X172927715Y-98206410D01*
X172927714Y-98206411D01*
X172915404Y-98224457D01*
X172804743Y-98386680D01*
X172710688Y-98589305D01*
X172650989Y-98804570D01*
X172627251Y-99026695D01*
X172627548Y-99031848D01*
X172627548Y-99031851D01*
X172633011Y-99126590D01*
X172640110Y-99249715D01*
X172641247Y-99254761D01*
X172641248Y-99254767D01*
X172661119Y-99342939D01*
X172689222Y-99467639D01*
X172773266Y-99674616D01*
X172775965Y-99679020D01*
X172873405Y-99838028D01*
X172889987Y-99865088D01*
X173036250Y-100033938D01*
X173208126Y-100176632D01*
X173225239Y-100186632D01*
X173281955Y-100219774D01*
X173330679Y-100271412D01*
X173343750Y-100341195D01*
X173317019Y-100406967D01*
X173276562Y-100440327D01*
X173268457Y-100444546D01*
X173259738Y-100450036D01*
X173089433Y-100577905D01*
X173081726Y-100584748D01*
X172934590Y-100738717D01*
X172928104Y-100746727D01*
X172808098Y-100922649D01*
X172803000Y-100931623D01*
X172713338Y-101124783D01*
X172709775Y-101134470D01*
X172654389Y-101334183D01*
X172655912Y-101342607D01*
X172668292Y-101346000D01*
X174118000Y-101346000D01*
X174186121Y-101366002D01*
X174232614Y-101419658D01*
X174244000Y-101472000D01*
X174244000Y-101728000D01*
X174223998Y-101796121D01*
X174170342Y-101842614D01*
X174118000Y-101854000D01*
X172673225Y-101854000D01*
X172659694Y-101857973D01*
X172658257Y-101867966D01*
X172688565Y-102002446D01*
X172691645Y-102012275D01*
X172771770Y-102209603D01*
X172776413Y-102218794D01*
X172887694Y-102400388D01*
X172893777Y-102408699D01*
X173033213Y-102569667D01*
X173040580Y-102576883D01*
X173204434Y-102712916D01*
X173212881Y-102718831D01*
X173281969Y-102759203D01*
X173330693Y-102810842D01*
X173343764Y-102880625D01*
X173317033Y-102946396D01*
X173276584Y-102979752D01*
X173263607Y-102986507D01*
X173259474Y-102989610D01*
X173259471Y-102989612D01*
X173089100Y-103117530D01*
X173084965Y-103120635D01*
X172930629Y-103282138D01*
X172927715Y-103286410D01*
X172927714Y-103286411D01*
X172915409Y-103304450D01*
X172804743Y-103466680D01*
X172710688Y-103669305D01*
X172650989Y-103884570D01*
X172627251Y-104106695D01*
X172627548Y-104111848D01*
X172627548Y-104111851D01*
X172633011Y-104206590D01*
X172640110Y-104329715D01*
X172641247Y-104334761D01*
X172641248Y-104334767D01*
X172661119Y-104422939D01*
X172689222Y-104547639D01*
X172773266Y-104754616D01*
X172775965Y-104759020D01*
X172873405Y-104918028D01*
X172889987Y-104945088D01*
X173036250Y-105113938D01*
X173208126Y-105256632D01*
X173225239Y-105266632D01*
X173281445Y-105299476D01*
X173330169Y-105351114D01*
X173343240Y-105420897D01*
X173316509Y-105486669D01*
X173276055Y-105520027D01*
X173263607Y-105526507D01*
X173259474Y-105529610D01*
X173259471Y-105529612D01*
X173089100Y-105657530D01*
X173084965Y-105660635D01*
X172930629Y-105822138D01*
X172927715Y-105826410D01*
X172927714Y-105826411D01*
X172915404Y-105844457D01*
X172804743Y-106006680D01*
X172710688Y-106209305D01*
X172650989Y-106424570D01*
X172627251Y-106646695D01*
X172627548Y-106651848D01*
X172627548Y-106651851D01*
X172633011Y-106746590D01*
X172640110Y-106869715D01*
X172641247Y-106874761D01*
X172641248Y-106874767D01*
X172661119Y-106962939D01*
X172689222Y-107087639D01*
X172773266Y-107294616D01*
X172775965Y-107299020D01*
X172873405Y-107458028D01*
X172889987Y-107485088D01*
X173036250Y-107653938D01*
X173208126Y-107796632D01*
X173225239Y-107806632D01*
X173281445Y-107839476D01*
X173330169Y-107891114D01*
X173343240Y-107960897D01*
X173316509Y-108026669D01*
X173276055Y-108060027D01*
X173263607Y-108066507D01*
X173259474Y-108069610D01*
X173259471Y-108069612D01*
X173089100Y-108197530D01*
X173084965Y-108200635D01*
X172930629Y-108362138D01*
X172927715Y-108366410D01*
X172927714Y-108366411D01*
X172915404Y-108384457D01*
X172804743Y-108546680D01*
X172710688Y-108749305D01*
X172650989Y-108964570D01*
X172627251Y-109186695D01*
X172627548Y-109191848D01*
X172627548Y-109191851D01*
X172633011Y-109286590D01*
X172640110Y-109409715D01*
X172641247Y-109414761D01*
X172641248Y-109414767D01*
X172661119Y-109502939D01*
X172689222Y-109627639D01*
X172773266Y-109834616D01*
X172775965Y-109839020D01*
X172873405Y-109998028D01*
X172889987Y-110025088D01*
X173036250Y-110193938D01*
X173208126Y-110336632D01*
X173225239Y-110346632D01*
X173281445Y-110379476D01*
X173330169Y-110431114D01*
X173343240Y-110500897D01*
X173316509Y-110566669D01*
X173276055Y-110600027D01*
X173263607Y-110606507D01*
X173259474Y-110609610D01*
X173259471Y-110609612D01*
X173089100Y-110737530D01*
X173084965Y-110740635D01*
X172930629Y-110902138D01*
X172927715Y-110906410D01*
X172927714Y-110906411D01*
X172915404Y-110924457D01*
X172804743Y-111086680D01*
X172710688Y-111289305D01*
X172650989Y-111504570D01*
X172627251Y-111726695D01*
X172627548Y-111731848D01*
X172627548Y-111731851D01*
X172633011Y-111826590D01*
X172640110Y-111949715D01*
X172641247Y-111954761D01*
X172641248Y-111954767D01*
X172661119Y-112042939D01*
X172689222Y-112167639D01*
X172773266Y-112374616D01*
X172775965Y-112379020D01*
X172873405Y-112538028D01*
X172889987Y-112565088D01*
X173036250Y-112733938D01*
X173208126Y-112876632D01*
X173225239Y-112886632D01*
X173281955Y-112919774D01*
X173330679Y-112971412D01*
X173343750Y-113041195D01*
X173317019Y-113106967D01*
X173276562Y-113140327D01*
X173268457Y-113144546D01*
X173259738Y-113150036D01*
X173089433Y-113277905D01*
X173081726Y-113284748D01*
X172934590Y-113438717D01*
X172928104Y-113446727D01*
X172808098Y-113622649D01*
X172803000Y-113631623D01*
X172713338Y-113824783D01*
X172709775Y-113834470D01*
X172654389Y-114034183D01*
X172655912Y-114042607D01*
X172668292Y-114046000D01*
X174118000Y-114046000D01*
X174186121Y-114066002D01*
X174232614Y-114119658D01*
X174244000Y-114172000D01*
X174244000Y-114428000D01*
X174223998Y-114496121D01*
X174170342Y-114542614D01*
X174118000Y-114554000D01*
X172673225Y-114554000D01*
X172659694Y-114557973D01*
X172658257Y-114567966D01*
X172688565Y-114702446D01*
X172691645Y-114712275D01*
X172771770Y-114909603D01*
X172776413Y-114918794D01*
X172887694Y-115100388D01*
X172893777Y-115108699D01*
X173033213Y-115269667D01*
X173040580Y-115276883D01*
X173204434Y-115412916D01*
X173212881Y-115418831D01*
X173281969Y-115459203D01*
X173330693Y-115510842D01*
X173343764Y-115580625D01*
X173317033Y-115646396D01*
X173276584Y-115679752D01*
X173263607Y-115686507D01*
X173259474Y-115689610D01*
X173259471Y-115689612D01*
X173089100Y-115817530D01*
X173084965Y-115820635D01*
X172930629Y-115982138D01*
X172927715Y-115986410D01*
X172927714Y-115986411D01*
X172915409Y-116004450D01*
X172804743Y-116166680D01*
X172710688Y-116369305D01*
X172650989Y-116584570D01*
X172627251Y-116806695D01*
X172627548Y-116811848D01*
X172627548Y-116811851D01*
X172633011Y-116906590D01*
X172640110Y-117029715D01*
X172641247Y-117034761D01*
X172641248Y-117034767D01*
X172661119Y-117122939D01*
X172689222Y-117247639D01*
X172773266Y-117454616D01*
X172775965Y-117459020D01*
X172873405Y-117618028D01*
X172889987Y-117645088D01*
X173036250Y-117813938D01*
X173040230Y-117817242D01*
X173044981Y-117821187D01*
X173084616Y-117880090D01*
X173086113Y-117951071D01*
X173048997Y-118011593D01*
X173008725Y-118036112D01*
X172942033Y-118061114D01*
X172893295Y-118079385D01*
X172776739Y-118166739D01*
X172689385Y-118283295D01*
X172638255Y-118419684D01*
X172631500Y-118481866D01*
X172631500Y-120278134D01*
X172638255Y-120340316D01*
X172689385Y-120476705D01*
X172694770Y-120483890D01*
X172694771Y-120483892D01*
X172763004Y-120574935D01*
X172787852Y-120641442D01*
X172772799Y-120710824D01*
X172722625Y-120761054D01*
X172662178Y-120776500D01*
X167145333Y-120776500D01*
X167077212Y-120756498D01*
X167030719Y-120702842D01*
X167020615Y-120632568D01*
X167050109Y-120567988D01*
X167072165Y-120547921D01*
X167130050Y-120506632D01*
X167249860Y-120421173D01*
X167408096Y-120263489D01*
X167467594Y-120180689D01*
X167535435Y-120086277D01*
X167538453Y-120082077D01*
X167547979Y-120062804D01*
X167635136Y-119886453D01*
X167635137Y-119886451D01*
X167637430Y-119881811D01*
X167702370Y-119668069D01*
X167731529Y-119446590D01*
X167731611Y-119443240D01*
X167733074Y-119383365D01*
X167733074Y-119383361D01*
X167733156Y-119380000D01*
X167714852Y-119157361D01*
X167660431Y-118940702D01*
X167571354Y-118735840D01*
X167459291Y-118562617D01*
X167452822Y-118552617D01*
X167452820Y-118552614D01*
X167450014Y-118548277D01*
X167299670Y-118383051D01*
X167295619Y-118379852D01*
X167295615Y-118379848D01*
X167128414Y-118247800D01*
X167128410Y-118247798D01*
X167124359Y-118244598D01*
X167083053Y-118221796D01*
X167033084Y-118171364D01*
X167018312Y-118101921D01*
X167043428Y-118035516D01*
X167070780Y-118008909D01*
X167134684Y-117963327D01*
X167249860Y-117881173D01*
X167408096Y-117723489D01*
X167467594Y-117640689D01*
X167535435Y-117546277D01*
X167538453Y-117542077D01*
X167547979Y-117522804D01*
X167635136Y-117346453D01*
X167635137Y-117346451D01*
X167637430Y-117341811D01*
X167702370Y-117128069D01*
X167731529Y-116906590D01*
X167731611Y-116903240D01*
X167733074Y-116843365D01*
X167733074Y-116843361D01*
X167733156Y-116840000D01*
X167714852Y-116617361D01*
X167660431Y-116400702D01*
X167571354Y-116195840D01*
X167459291Y-116022617D01*
X167452822Y-116012617D01*
X167452820Y-116012614D01*
X167450014Y-116008277D01*
X167446538Y-116004457D01*
X167446533Y-116004450D01*
X167302435Y-115846088D01*
X167271383Y-115782242D01*
X167279779Y-115711744D01*
X167324956Y-115656976D01*
X167351400Y-115643307D01*
X167458052Y-115603325D01*
X167473649Y-115594786D01*
X167575724Y-115518285D01*
X167588285Y-115505724D01*
X167664786Y-115403649D01*
X167673324Y-115388054D01*
X167718478Y-115267606D01*
X167722105Y-115252351D01*
X167727631Y-115201486D01*
X167728000Y-115194672D01*
X167728000Y-114572115D01*
X167723525Y-114556876D01*
X167722135Y-114555671D01*
X167714452Y-114554000D01*
X165030116Y-114554000D01*
X165014877Y-114558475D01*
X165013672Y-114559865D01*
X165012001Y-114567548D01*
X165012001Y-115194669D01*
X165012371Y-115201490D01*
X165017895Y-115252352D01*
X165021521Y-115267604D01*
X165066676Y-115388054D01*
X165075214Y-115403649D01*
X165151715Y-115505724D01*
X165164276Y-115518285D01*
X165266351Y-115594786D01*
X165281946Y-115603324D01*
X165390827Y-115644142D01*
X165447591Y-115686784D01*
X165472291Y-115753345D01*
X165457083Y-115822694D01*
X165437691Y-115849175D01*
X165430338Y-115856870D01*
X165310629Y-115982138D01*
X165307715Y-115986410D01*
X165307714Y-115986411D01*
X165295409Y-116004450D01*
X165184743Y-116166680D01*
X165090688Y-116369305D01*
X165030989Y-116584570D01*
X165007251Y-116806695D01*
X165007548Y-116811848D01*
X165007548Y-116811851D01*
X165013011Y-116906590D01*
X165020110Y-117029715D01*
X165021247Y-117034761D01*
X165021248Y-117034767D01*
X165041119Y-117122939D01*
X165069222Y-117247639D01*
X165153266Y-117454616D01*
X165155965Y-117459020D01*
X165253405Y-117618028D01*
X165269987Y-117645088D01*
X165416250Y-117813938D01*
X165588126Y-117956632D01*
X165605239Y-117966632D01*
X165661445Y-117999476D01*
X165710169Y-118051114D01*
X165723240Y-118120897D01*
X165696509Y-118186669D01*
X165656055Y-118220027D01*
X165643607Y-118226507D01*
X165639474Y-118229610D01*
X165639471Y-118229612D01*
X165469100Y-118357530D01*
X165464965Y-118360635D01*
X165310629Y-118522138D01*
X165307715Y-118526410D01*
X165307714Y-118526411D01*
X165295404Y-118544457D01*
X165184743Y-118706680D01*
X165090688Y-118909305D01*
X165030989Y-119124570D01*
X165007251Y-119346695D01*
X165007548Y-119351848D01*
X165007548Y-119351851D01*
X165013011Y-119446590D01*
X165020110Y-119569715D01*
X165021247Y-119574761D01*
X165021248Y-119574767D01*
X165041119Y-119662939D01*
X165069222Y-119787639D01*
X165153266Y-119994616D01*
X165155965Y-119999020D01*
X165253405Y-120158028D01*
X165269987Y-120185088D01*
X165416250Y-120353938D01*
X165588126Y-120496632D01*
X165665273Y-120541713D01*
X165713995Y-120593351D01*
X165727066Y-120663134D01*
X165700334Y-120728906D01*
X165642287Y-120769784D01*
X165601701Y-120776500D01*
X149365333Y-120776500D01*
X149297212Y-120756498D01*
X149250719Y-120702842D01*
X149240615Y-120632568D01*
X149270109Y-120567988D01*
X149292165Y-120547921D01*
X149350050Y-120506632D01*
X149469860Y-120421173D01*
X149628096Y-120263489D01*
X149687594Y-120180689D01*
X149755435Y-120086277D01*
X149758453Y-120082077D01*
X149767979Y-120062804D01*
X149855136Y-119886453D01*
X149855137Y-119886451D01*
X149857430Y-119881811D01*
X149922370Y-119668069D01*
X149951529Y-119446590D01*
X149951611Y-119443240D01*
X149953074Y-119383365D01*
X149953074Y-119383361D01*
X149953156Y-119380000D01*
X149934852Y-119157361D01*
X149880431Y-118940702D01*
X149791354Y-118735840D01*
X149679291Y-118562617D01*
X149672822Y-118552617D01*
X149672820Y-118552614D01*
X149670014Y-118548277D01*
X149519670Y-118383051D01*
X149515619Y-118379852D01*
X149515615Y-118379848D01*
X149348414Y-118247800D01*
X149348410Y-118247798D01*
X149344359Y-118244598D01*
X149303053Y-118221796D01*
X149253084Y-118171364D01*
X149238312Y-118101921D01*
X149263428Y-118035516D01*
X149290780Y-118008909D01*
X149354684Y-117963327D01*
X149469860Y-117881173D01*
X149628096Y-117723489D01*
X149687594Y-117640689D01*
X149755435Y-117546277D01*
X149758453Y-117542077D01*
X149767979Y-117522804D01*
X149855136Y-117346453D01*
X149855137Y-117346451D01*
X149857430Y-117341811D01*
X149922370Y-117128069D01*
X149951529Y-116906590D01*
X149951611Y-116903240D01*
X149953074Y-116843365D01*
X149953074Y-116843361D01*
X149953156Y-116840000D01*
X149934852Y-116617361D01*
X149880431Y-116400702D01*
X149791354Y-116195840D01*
X149679291Y-116022617D01*
X149672822Y-116012617D01*
X149672820Y-116012614D01*
X149670014Y-116008277D01*
X149666538Y-116004457D01*
X149666533Y-116004450D01*
X149522435Y-115846088D01*
X149491383Y-115782242D01*
X149499779Y-115711744D01*
X149544956Y-115656976D01*
X149571400Y-115643307D01*
X149678052Y-115603325D01*
X149693649Y-115594786D01*
X149795724Y-115518285D01*
X149808285Y-115505724D01*
X149884786Y-115403649D01*
X149893324Y-115388054D01*
X149938478Y-115267606D01*
X149942105Y-115252351D01*
X149947631Y-115201486D01*
X149948000Y-115194672D01*
X149948000Y-114572115D01*
X149943525Y-114556876D01*
X149942135Y-114555671D01*
X149934452Y-114554000D01*
X147250116Y-114554000D01*
X147234877Y-114558475D01*
X147233672Y-114559865D01*
X147232001Y-114567548D01*
X147232001Y-115194669D01*
X147232371Y-115201490D01*
X147237895Y-115252352D01*
X147241521Y-115267604D01*
X147286676Y-115388054D01*
X147295214Y-115403649D01*
X147371715Y-115505724D01*
X147384276Y-115518285D01*
X147486351Y-115594786D01*
X147501946Y-115603324D01*
X147610827Y-115644142D01*
X147667591Y-115686784D01*
X147692291Y-115753345D01*
X147677083Y-115822694D01*
X147657691Y-115849175D01*
X147650338Y-115856870D01*
X147530629Y-115982138D01*
X147527715Y-115986410D01*
X147527714Y-115986411D01*
X147515409Y-116004450D01*
X147404743Y-116166680D01*
X147310688Y-116369305D01*
X147250989Y-116584570D01*
X147227251Y-116806695D01*
X147227548Y-116811848D01*
X147227548Y-116811851D01*
X147233011Y-116906590D01*
X147240110Y-117029715D01*
X147241247Y-117034761D01*
X147241248Y-117034767D01*
X147261119Y-117122939D01*
X147289222Y-117247639D01*
X147373266Y-117454616D01*
X147375965Y-117459020D01*
X147473405Y-117618028D01*
X147489987Y-117645088D01*
X147636250Y-117813938D01*
X147808126Y-117956632D01*
X147825239Y-117966632D01*
X147881445Y-117999476D01*
X147930169Y-118051114D01*
X147943240Y-118120897D01*
X147916509Y-118186669D01*
X147876055Y-118220027D01*
X147863607Y-118226507D01*
X147859474Y-118229610D01*
X147859471Y-118229612D01*
X147689100Y-118357530D01*
X147684965Y-118360635D01*
X147530629Y-118522138D01*
X147527715Y-118526410D01*
X147527714Y-118526411D01*
X147515404Y-118544457D01*
X147404743Y-118706680D01*
X147310688Y-118909305D01*
X147250989Y-119124570D01*
X147227251Y-119346695D01*
X147227548Y-119351848D01*
X147227548Y-119351851D01*
X147233011Y-119446590D01*
X147240110Y-119569715D01*
X147241247Y-119574761D01*
X147241248Y-119574767D01*
X147261119Y-119662939D01*
X147289222Y-119787639D01*
X147373266Y-119994616D01*
X147375965Y-119999020D01*
X147473405Y-120158028D01*
X147489987Y-120185088D01*
X147636250Y-120353938D01*
X147808126Y-120496632D01*
X147885273Y-120541713D01*
X147933995Y-120593351D01*
X147947066Y-120663134D01*
X147920334Y-120728906D01*
X147862287Y-120769784D01*
X147821701Y-120776500D01*
X140489352Y-120776500D01*
X140421231Y-120756498D01*
X140374738Y-120702842D01*
X140364634Y-120632568D01*
X140394128Y-120567988D01*
X140416184Y-120547921D01*
X140424889Y-120541712D01*
X140579860Y-120431173D01*
X140738096Y-120273489D01*
X140742661Y-120267137D01*
X140865435Y-120096277D01*
X140868453Y-120092077D01*
X140873396Y-120082077D01*
X140965136Y-119896453D01*
X140965137Y-119896451D01*
X140967430Y-119891811D01*
X141032370Y-119678069D01*
X141061529Y-119456590D01*
X141063156Y-119390000D01*
X141044852Y-119167361D01*
X140990431Y-118950702D01*
X140901354Y-118745840D01*
X140780014Y-118558277D01*
X140629670Y-118393051D01*
X140625619Y-118389852D01*
X140625615Y-118389848D01*
X140458414Y-118257800D01*
X140458410Y-118257798D01*
X140454359Y-118254598D01*
X140413053Y-118231796D01*
X140363084Y-118181364D01*
X140348312Y-118111921D01*
X140373428Y-118045516D01*
X140400780Y-118018909D01*
X140444603Y-117987650D01*
X140579860Y-117891173D01*
X140738096Y-117733489D01*
X140742661Y-117727137D01*
X140865435Y-117556277D01*
X140868453Y-117552077D01*
X140873206Y-117542461D01*
X140965136Y-117356453D01*
X140965137Y-117356451D01*
X140967430Y-117351811D01*
X141032370Y-117138069D01*
X141061529Y-116916590D01*
X141063156Y-116850000D01*
X141044852Y-116627361D01*
X140990431Y-116410702D01*
X140901354Y-116205840D01*
X140780014Y-116018277D01*
X140629670Y-115853051D01*
X140625619Y-115849852D01*
X140625615Y-115849848D01*
X140458414Y-115717800D01*
X140458410Y-115717798D01*
X140454359Y-115714598D01*
X140442045Y-115707800D01*
X140412569Y-115691529D01*
X140362598Y-115641097D01*
X140347826Y-115571654D01*
X140372942Y-115505248D01*
X140400294Y-115478641D01*
X140575328Y-115353792D01*
X140583200Y-115347139D01*
X140734052Y-115196812D01*
X140740730Y-115188965D01*
X140865003Y-115016020D01*
X140870313Y-115007183D01*
X140964670Y-114816267D01*
X140968469Y-114806672D01*
X141030377Y-114602910D01*
X141032555Y-114592837D01*
X141033986Y-114581962D01*
X141031775Y-114567778D01*
X141018617Y-114564000D01*
X139572000Y-114564000D01*
X139503879Y-114543998D01*
X139457386Y-114490342D01*
X139446000Y-114438000D01*
X139446000Y-114182000D01*
X139466002Y-114113879D01*
X139519658Y-114067386D01*
X139572000Y-114056000D01*
X141018344Y-114056000D01*
X141031875Y-114052027D01*
X141033180Y-114042947D01*
X140991214Y-113875875D01*
X140987894Y-113866124D01*
X140902972Y-113670814D01*
X140898105Y-113661739D01*
X140782426Y-113482926D01*
X140776136Y-113474757D01*
X140632806Y-113317240D01*
X140625273Y-113310215D01*
X140458139Y-113178222D01*
X140449556Y-113172520D01*
X140412602Y-113152120D01*
X140362631Y-113101687D01*
X140347859Y-113032245D01*
X140372975Y-112965839D01*
X140400327Y-112939232D01*
X140437515Y-112912706D01*
X140579860Y-112811173D01*
X140738096Y-112653489D01*
X140742661Y-112647137D01*
X140865435Y-112476277D01*
X140868453Y-112472077D01*
X140873206Y-112462461D01*
X140965136Y-112276453D01*
X140965137Y-112276451D01*
X140967430Y-112271811D01*
X141032370Y-112058069D01*
X141061529Y-111836590D01*
X141063156Y-111770000D01*
X141059596Y-111726695D01*
X147227251Y-111726695D01*
X147227548Y-111731848D01*
X147227548Y-111731851D01*
X147233011Y-111826590D01*
X147240110Y-111949715D01*
X147241247Y-111954761D01*
X147241248Y-111954767D01*
X147261119Y-112042939D01*
X147289222Y-112167639D01*
X147373266Y-112374616D01*
X147375965Y-112379020D01*
X147473405Y-112538028D01*
X147489987Y-112565088D01*
X147636250Y-112733938D01*
X147640225Y-112737238D01*
X147640231Y-112737244D01*
X147645425Y-112741556D01*
X147685059Y-112800460D01*
X147686555Y-112871441D01*
X147649439Y-112931962D01*
X147609168Y-112956480D01*
X147501946Y-112996676D01*
X147486351Y-113005214D01*
X147384276Y-113081715D01*
X147371715Y-113094276D01*
X147295214Y-113196351D01*
X147286676Y-113211946D01*
X147241522Y-113332394D01*
X147237895Y-113347649D01*
X147232369Y-113398514D01*
X147232000Y-113405328D01*
X147232000Y-114027885D01*
X147236475Y-114043124D01*
X147237865Y-114044329D01*
X147245548Y-114046000D01*
X149929884Y-114046000D01*
X149945123Y-114041525D01*
X149946328Y-114040135D01*
X149947999Y-114032452D01*
X149947999Y-113405331D01*
X149947629Y-113398510D01*
X149942105Y-113347648D01*
X149938479Y-113332396D01*
X149893324Y-113211946D01*
X149884786Y-113196351D01*
X149808285Y-113094276D01*
X149795724Y-113081715D01*
X149693649Y-113005214D01*
X149678054Y-112996676D01*
X149567813Y-112955348D01*
X149511049Y-112912706D01*
X149486349Y-112846145D01*
X149501557Y-112776796D01*
X149523104Y-112748115D01*
X149624430Y-112647144D01*
X149624440Y-112647132D01*
X149628096Y-112643489D01*
X149687594Y-112560689D01*
X149755435Y-112466277D01*
X149758453Y-112462077D01*
X149767979Y-112442804D01*
X149855136Y-112266453D01*
X149855137Y-112266451D01*
X149857430Y-112261811D01*
X149922370Y-112048069D01*
X149951529Y-111826590D01*
X149951611Y-111823240D01*
X149953074Y-111763365D01*
X149953074Y-111763361D01*
X149953156Y-111760000D01*
X149950418Y-111726695D01*
X165007251Y-111726695D01*
X165007548Y-111731848D01*
X165007548Y-111731851D01*
X165013011Y-111826590D01*
X165020110Y-111949715D01*
X165021247Y-111954761D01*
X165021248Y-111954767D01*
X165041119Y-112042939D01*
X165069222Y-112167639D01*
X165153266Y-112374616D01*
X165155965Y-112379020D01*
X165253405Y-112538028D01*
X165269987Y-112565088D01*
X165416250Y-112733938D01*
X165420225Y-112737238D01*
X165420231Y-112737244D01*
X165425425Y-112741556D01*
X165465059Y-112800460D01*
X165466555Y-112871441D01*
X165429439Y-112931962D01*
X165389168Y-112956480D01*
X165281946Y-112996676D01*
X165266351Y-113005214D01*
X165164276Y-113081715D01*
X165151715Y-113094276D01*
X165075214Y-113196351D01*
X165066676Y-113211946D01*
X165021522Y-113332394D01*
X165017895Y-113347649D01*
X165012369Y-113398514D01*
X165012000Y-113405328D01*
X165012000Y-114027885D01*
X165016475Y-114043124D01*
X165017865Y-114044329D01*
X165025548Y-114046000D01*
X167709884Y-114046000D01*
X167725123Y-114041525D01*
X167726328Y-114040135D01*
X167727999Y-114032452D01*
X167727999Y-113405331D01*
X167727629Y-113398510D01*
X167722105Y-113347648D01*
X167718479Y-113332396D01*
X167673324Y-113211946D01*
X167664786Y-113196351D01*
X167588285Y-113094276D01*
X167575724Y-113081715D01*
X167473649Y-113005214D01*
X167458054Y-112996676D01*
X167347813Y-112955348D01*
X167291049Y-112912706D01*
X167266349Y-112846145D01*
X167281557Y-112776796D01*
X167303104Y-112748115D01*
X167404430Y-112647144D01*
X167404440Y-112647132D01*
X167408096Y-112643489D01*
X167467594Y-112560689D01*
X167535435Y-112466277D01*
X167538453Y-112462077D01*
X167547979Y-112442804D01*
X167635136Y-112266453D01*
X167635137Y-112266451D01*
X167637430Y-112261811D01*
X167702370Y-112048069D01*
X167731529Y-111826590D01*
X167731611Y-111823240D01*
X167733074Y-111763365D01*
X167733074Y-111763361D01*
X167733156Y-111760000D01*
X167714852Y-111537361D01*
X167660431Y-111320702D01*
X167571354Y-111115840D01*
X167459291Y-110942617D01*
X167452822Y-110932617D01*
X167452820Y-110932614D01*
X167450014Y-110928277D01*
X167299670Y-110763051D01*
X167295619Y-110759852D01*
X167295615Y-110759848D01*
X167128414Y-110627800D01*
X167128410Y-110627798D01*
X167124359Y-110624598D01*
X167083053Y-110601796D01*
X167033084Y-110551364D01*
X167018312Y-110481921D01*
X167043428Y-110415516D01*
X167070780Y-110388909D01*
X167134684Y-110343327D01*
X167249860Y-110261173D01*
X167408096Y-110103489D01*
X167467594Y-110020689D01*
X167535435Y-109926277D01*
X167538453Y-109922077D01*
X167547979Y-109902804D01*
X167635136Y-109726453D01*
X167635137Y-109726451D01*
X167637430Y-109721811D01*
X167702370Y-109508069D01*
X167731529Y-109286590D01*
X167731611Y-109283240D01*
X167733074Y-109223365D01*
X167733074Y-109223361D01*
X167733156Y-109220000D01*
X167714852Y-108997361D01*
X167660431Y-108780702D01*
X167571354Y-108575840D01*
X167459291Y-108402617D01*
X167452822Y-108392617D01*
X167452820Y-108392614D01*
X167450014Y-108388277D01*
X167299670Y-108223051D01*
X167295619Y-108219852D01*
X167295615Y-108219848D01*
X167128414Y-108087800D01*
X167128410Y-108087798D01*
X167124359Y-108084598D01*
X167083053Y-108061796D01*
X167033084Y-108011364D01*
X167018312Y-107941921D01*
X167043428Y-107875516D01*
X167070780Y-107848909D01*
X167134684Y-107803327D01*
X167249860Y-107721173D01*
X167408096Y-107563489D01*
X167467594Y-107480689D01*
X167535435Y-107386277D01*
X167538453Y-107382077D01*
X167547979Y-107362804D01*
X167635136Y-107186453D01*
X167635137Y-107186451D01*
X167637430Y-107181811D01*
X167702370Y-106968069D01*
X167731529Y-106746590D01*
X167731611Y-106743240D01*
X167733074Y-106683365D01*
X167733074Y-106683361D01*
X167733156Y-106680000D01*
X167714852Y-106457361D01*
X167660431Y-106240702D01*
X167571354Y-106035840D01*
X167459291Y-105862617D01*
X167452822Y-105852617D01*
X167452820Y-105852614D01*
X167450014Y-105848277D01*
X167299670Y-105683051D01*
X167295619Y-105679852D01*
X167295615Y-105679848D01*
X167128414Y-105547800D01*
X167128410Y-105547798D01*
X167124359Y-105544598D01*
X167083053Y-105521796D01*
X167033084Y-105471364D01*
X167018312Y-105401921D01*
X167043428Y-105335516D01*
X167070780Y-105308909D01*
X167134684Y-105263327D01*
X167249860Y-105181173D01*
X167408096Y-105023489D01*
X167467594Y-104940689D01*
X167535435Y-104846277D01*
X167538453Y-104842077D01*
X167547979Y-104822804D01*
X167635136Y-104646453D01*
X167635137Y-104646451D01*
X167637430Y-104641811D01*
X167702370Y-104428069D01*
X167731529Y-104206590D01*
X167731611Y-104203240D01*
X167733074Y-104143365D01*
X167733074Y-104143361D01*
X167733156Y-104140000D01*
X167714852Y-103917361D01*
X167660431Y-103700702D01*
X167571354Y-103495840D01*
X167459291Y-103322617D01*
X167452822Y-103312617D01*
X167452820Y-103312614D01*
X167450014Y-103308277D01*
X167446538Y-103304457D01*
X167446533Y-103304450D01*
X167302435Y-103146088D01*
X167271383Y-103082242D01*
X167279779Y-103011744D01*
X167324956Y-102956976D01*
X167351400Y-102943307D01*
X167458052Y-102903325D01*
X167473649Y-102894786D01*
X167575724Y-102818285D01*
X167588285Y-102805724D01*
X167664786Y-102703649D01*
X167673324Y-102688054D01*
X167718478Y-102567606D01*
X167722105Y-102552351D01*
X167727631Y-102501486D01*
X167728000Y-102494672D01*
X167728000Y-101872115D01*
X167723525Y-101856876D01*
X167722135Y-101855671D01*
X167714452Y-101854000D01*
X165030116Y-101854000D01*
X165014877Y-101858475D01*
X165013672Y-101859865D01*
X165012001Y-101867548D01*
X165012001Y-102494669D01*
X165012371Y-102501490D01*
X165017895Y-102552352D01*
X165021521Y-102567604D01*
X165066676Y-102688054D01*
X165075214Y-102703649D01*
X165151715Y-102805724D01*
X165164276Y-102818285D01*
X165266351Y-102894786D01*
X165281946Y-102903324D01*
X165390827Y-102944142D01*
X165447591Y-102986784D01*
X165472291Y-103053345D01*
X165457083Y-103122694D01*
X165437691Y-103149175D01*
X165430338Y-103156870D01*
X165310629Y-103282138D01*
X165307715Y-103286410D01*
X165307714Y-103286411D01*
X165295409Y-103304450D01*
X165184743Y-103466680D01*
X165090688Y-103669305D01*
X165030989Y-103884570D01*
X165007251Y-104106695D01*
X165007548Y-104111848D01*
X165007548Y-104111851D01*
X165013011Y-104206590D01*
X165020110Y-104329715D01*
X165021247Y-104334761D01*
X165021248Y-104334767D01*
X165041119Y-104422939D01*
X165069222Y-104547639D01*
X165153266Y-104754616D01*
X165155965Y-104759020D01*
X165253405Y-104918028D01*
X165269987Y-104945088D01*
X165416250Y-105113938D01*
X165588126Y-105256632D01*
X165605239Y-105266632D01*
X165661445Y-105299476D01*
X165710169Y-105351114D01*
X165723240Y-105420897D01*
X165696509Y-105486669D01*
X165656055Y-105520027D01*
X165643607Y-105526507D01*
X165639474Y-105529610D01*
X165639471Y-105529612D01*
X165469100Y-105657530D01*
X165464965Y-105660635D01*
X165310629Y-105822138D01*
X165307715Y-105826410D01*
X165307714Y-105826411D01*
X165295404Y-105844457D01*
X165184743Y-106006680D01*
X165090688Y-106209305D01*
X165030989Y-106424570D01*
X165007251Y-106646695D01*
X165007548Y-106651848D01*
X165007548Y-106651851D01*
X165013011Y-106746590D01*
X165020110Y-106869715D01*
X165021247Y-106874761D01*
X165021248Y-106874767D01*
X165041119Y-106962939D01*
X165069222Y-107087639D01*
X165153266Y-107294616D01*
X165155965Y-107299020D01*
X165253405Y-107458028D01*
X165269987Y-107485088D01*
X165416250Y-107653938D01*
X165588126Y-107796632D01*
X165605239Y-107806632D01*
X165661445Y-107839476D01*
X165710169Y-107891114D01*
X165723240Y-107960897D01*
X165696509Y-108026669D01*
X165656055Y-108060027D01*
X165643607Y-108066507D01*
X165639474Y-108069610D01*
X165639471Y-108069612D01*
X165469100Y-108197530D01*
X165464965Y-108200635D01*
X165310629Y-108362138D01*
X165307715Y-108366410D01*
X165307714Y-108366411D01*
X165295404Y-108384457D01*
X165184743Y-108546680D01*
X165090688Y-108749305D01*
X165030989Y-108964570D01*
X165007251Y-109186695D01*
X165007548Y-109191848D01*
X165007548Y-109191851D01*
X165013011Y-109286590D01*
X165020110Y-109409715D01*
X165021247Y-109414761D01*
X165021248Y-109414767D01*
X165041119Y-109502939D01*
X165069222Y-109627639D01*
X165153266Y-109834616D01*
X165155965Y-109839020D01*
X165253405Y-109998028D01*
X165269987Y-110025088D01*
X165416250Y-110193938D01*
X165588126Y-110336632D01*
X165605239Y-110346632D01*
X165661445Y-110379476D01*
X165710169Y-110431114D01*
X165723240Y-110500897D01*
X165696509Y-110566669D01*
X165656055Y-110600027D01*
X165643607Y-110606507D01*
X165639474Y-110609610D01*
X165639471Y-110609612D01*
X165469100Y-110737530D01*
X165464965Y-110740635D01*
X165310629Y-110902138D01*
X165307715Y-110906410D01*
X165307714Y-110906411D01*
X165295404Y-110924457D01*
X165184743Y-111086680D01*
X165090688Y-111289305D01*
X165030989Y-111504570D01*
X165007251Y-111726695D01*
X149950418Y-111726695D01*
X149934852Y-111537361D01*
X149880431Y-111320702D01*
X149791354Y-111115840D01*
X149679291Y-110942617D01*
X149672822Y-110932617D01*
X149672820Y-110932614D01*
X149670014Y-110928277D01*
X149519670Y-110763051D01*
X149515619Y-110759852D01*
X149515615Y-110759848D01*
X149348414Y-110627800D01*
X149348410Y-110627798D01*
X149344359Y-110624598D01*
X149303053Y-110601796D01*
X149253084Y-110551364D01*
X149238312Y-110481921D01*
X149263428Y-110415516D01*
X149290780Y-110388909D01*
X149354684Y-110343327D01*
X149469860Y-110261173D01*
X149628096Y-110103489D01*
X149687594Y-110020689D01*
X149755435Y-109926277D01*
X149758453Y-109922077D01*
X149767979Y-109902804D01*
X149855136Y-109726453D01*
X149855137Y-109726451D01*
X149857430Y-109721811D01*
X149922370Y-109508069D01*
X149951529Y-109286590D01*
X149951611Y-109283240D01*
X149953074Y-109223365D01*
X149953074Y-109223361D01*
X149953156Y-109220000D01*
X149934852Y-108997361D01*
X149880431Y-108780702D01*
X149791354Y-108575840D01*
X149679291Y-108402617D01*
X149672822Y-108392617D01*
X149672820Y-108392614D01*
X149670014Y-108388277D01*
X149519670Y-108223051D01*
X149515619Y-108219852D01*
X149515615Y-108219848D01*
X149348414Y-108087800D01*
X149348410Y-108087798D01*
X149344359Y-108084598D01*
X149303053Y-108061796D01*
X149253084Y-108011364D01*
X149238312Y-107941921D01*
X149263428Y-107875516D01*
X149290780Y-107848909D01*
X149354684Y-107803327D01*
X149469860Y-107721173D01*
X149628096Y-107563489D01*
X149687594Y-107480689D01*
X149755435Y-107386277D01*
X149758453Y-107382077D01*
X149767979Y-107362804D01*
X149855136Y-107186453D01*
X149855137Y-107186451D01*
X149857430Y-107181811D01*
X149922370Y-106968069D01*
X149951529Y-106746590D01*
X149951611Y-106743240D01*
X149953074Y-106683365D01*
X149953074Y-106683361D01*
X149953156Y-106680000D01*
X149934852Y-106457361D01*
X149880431Y-106240702D01*
X149791354Y-106035840D01*
X149679291Y-105862617D01*
X149672822Y-105852617D01*
X149672820Y-105852614D01*
X149670014Y-105848277D01*
X149519670Y-105683051D01*
X149515619Y-105679852D01*
X149515615Y-105679848D01*
X149348414Y-105547800D01*
X149348410Y-105547798D01*
X149344359Y-105544598D01*
X149303053Y-105521796D01*
X149253084Y-105471364D01*
X149238312Y-105401921D01*
X149263428Y-105335516D01*
X149290780Y-105308909D01*
X149354684Y-105263327D01*
X149469860Y-105181173D01*
X149628096Y-105023489D01*
X149687594Y-104940689D01*
X149755435Y-104846277D01*
X149758453Y-104842077D01*
X149767979Y-104822804D01*
X149855136Y-104646453D01*
X149855137Y-104646451D01*
X149857430Y-104641811D01*
X149922370Y-104428069D01*
X149951529Y-104206590D01*
X149951611Y-104203240D01*
X149953074Y-104143365D01*
X149953074Y-104143361D01*
X149953156Y-104140000D01*
X149934852Y-103917361D01*
X149880431Y-103700702D01*
X149791354Y-103495840D01*
X149679291Y-103322617D01*
X149672822Y-103312617D01*
X149672820Y-103312614D01*
X149670014Y-103308277D01*
X149666538Y-103304457D01*
X149666533Y-103304450D01*
X149522435Y-103146088D01*
X149491383Y-103082242D01*
X149499779Y-103011744D01*
X149544956Y-102956976D01*
X149571400Y-102943307D01*
X149678052Y-102903325D01*
X149693649Y-102894786D01*
X149795724Y-102818285D01*
X149808285Y-102805724D01*
X149884786Y-102703649D01*
X149893324Y-102688054D01*
X149938478Y-102567606D01*
X149942105Y-102552351D01*
X149947631Y-102501486D01*
X149948000Y-102494672D01*
X149948000Y-101872115D01*
X149943525Y-101856876D01*
X149942135Y-101855671D01*
X149934452Y-101854000D01*
X147250116Y-101854000D01*
X147234877Y-101858475D01*
X147233672Y-101859865D01*
X147232001Y-101867548D01*
X147232001Y-102494669D01*
X147232371Y-102501490D01*
X147237895Y-102552352D01*
X147241521Y-102567604D01*
X147286676Y-102688054D01*
X147295214Y-102703649D01*
X147371715Y-102805724D01*
X147384276Y-102818285D01*
X147486351Y-102894786D01*
X147501946Y-102903324D01*
X147610827Y-102944142D01*
X147667591Y-102986784D01*
X147692291Y-103053345D01*
X147677083Y-103122694D01*
X147657691Y-103149175D01*
X147650338Y-103156870D01*
X147530629Y-103282138D01*
X147527715Y-103286410D01*
X147527714Y-103286411D01*
X147515409Y-103304450D01*
X147404743Y-103466680D01*
X147310688Y-103669305D01*
X147250989Y-103884570D01*
X147227251Y-104106695D01*
X147227548Y-104111848D01*
X147227548Y-104111851D01*
X147233011Y-104206590D01*
X147240110Y-104329715D01*
X147241247Y-104334761D01*
X147241248Y-104334767D01*
X147261119Y-104422939D01*
X147289222Y-104547639D01*
X147373266Y-104754616D01*
X147375965Y-104759020D01*
X147473405Y-104918028D01*
X147489987Y-104945088D01*
X147636250Y-105113938D01*
X147808126Y-105256632D01*
X147825239Y-105266632D01*
X147881445Y-105299476D01*
X147930169Y-105351114D01*
X147943240Y-105420897D01*
X147916509Y-105486669D01*
X147876055Y-105520027D01*
X147863607Y-105526507D01*
X147859474Y-105529610D01*
X147859471Y-105529612D01*
X147689100Y-105657530D01*
X147684965Y-105660635D01*
X147530629Y-105822138D01*
X147527715Y-105826410D01*
X147527714Y-105826411D01*
X147515404Y-105844457D01*
X147404743Y-106006680D01*
X147310688Y-106209305D01*
X147250989Y-106424570D01*
X147227251Y-106646695D01*
X147227548Y-106651848D01*
X147227548Y-106651851D01*
X147233011Y-106746590D01*
X147240110Y-106869715D01*
X147241247Y-106874761D01*
X147241248Y-106874767D01*
X147261119Y-106962939D01*
X147289222Y-107087639D01*
X147373266Y-107294616D01*
X147375965Y-107299020D01*
X147473405Y-107458028D01*
X147489987Y-107485088D01*
X147636250Y-107653938D01*
X147808126Y-107796632D01*
X147825239Y-107806632D01*
X147881445Y-107839476D01*
X147930169Y-107891114D01*
X147943240Y-107960897D01*
X147916509Y-108026669D01*
X147876055Y-108060027D01*
X147863607Y-108066507D01*
X147859474Y-108069610D01*
X147859471Y-108069612D01*
X147689100Y-108197530D01*
X147684965Y-108200635D01*
X147530629Y-108362138D01*
X147527715Y-108366410D01*
X147527714Y-108366411D01*
X147515404Y-108384457D01*
X147404743Y-108546680D01*
X147310688Y-108749305D01*
X147250989Y-108964570D01*
X147227251Y-109186695D01*
X147227548Y-109191848D01*
X147227548Y-109191851D01*
X147233011Y-109286590D01*
X147240110Y-109409715D01*
X147241247Y-109414761D01*
X147241248Y-109414767D01*
X147261119Y-109502939D01*
X147289222Y-109627639D01*
X147373266Y-109834616D01*
X147375965Y-109839020D01*
X147473405Y-109998028D01*
X147489987Y-110025088D01*
X147636250Y-110193938D01*
X147808126Y-110336632D01*
X147825239Y-110346632D01*
X147881445Y-110379476D01*
X147930169Y-110431114D01*
X147943240Y-110500897D01*
X147916509Y-110566669D01*
X147876055Y-110600027D01*
X147863607Y-110606507D01*
X147859474Y-110609610D01*
X147859471Y-110609612D01*
X147689100Y-110737530D01*
X147684965Y-110740635D01*
X147530629Y-110902138D01*
X147527715Y-110906410D01*
X147527714Y-110906411D01*
X147515404Y-110924457D01*
X147404743Y-111086680D01*
X147310688Y-111289305D01*
X147250989Y-111504570D01*
X147227251Y-111726695D01*
X141059596Y-111726695D01*
X141044852Y-111547361D01*
X140990431Y-111330702D01*
X140901354Y-111125840D01*
X140780014Y-110938277D01*
X140629670Y-110773051D01*
X140625619Y-110769852D01*
X140625615Y-110769848D01*
X140458414Y-110637800D01*
X140458410Y-110637798D01*
X140454359Y-110634598D01*
X140413053Y-110611796D01*
X140363084Y-110561364D01*
X140348312Y-110491921D01*
X140373428Y-110425516D01*
X140400780Y-110398909D01*
X140444603Y-110367650D01*
X140579860Y-110271173D01*
X140738096Y-110113489D01*
X140742661Y-110107137D01*
X140865435Y-109936277D01*
X140868453Y-109932077D01*
X140873206Y-109922461D01*
X140965136Y-109736453D01*
X140965137Y-109736451D01*
X140967430Y-109731811D01*
X141032370Y-109518069D01*
X141061529Y-109296590D01*
X141063156Y-109230000D01*
X141044852Y-109007361D01*
X140990431Y-108790702D01*
X140901354Y-108585840D01*
X140780014Y-108398277D01*
X140629670Y-108233051D01*
X140625619Y-108229852D01*
X140625615Y-108229848D01*
X140458414Y-108097800D01*
X140458410Y-108097798D01*
X140454359Y-108094598D01*
X140413053Y-108071796D01*
X140363084Y-108021364D01*
X140348312Y-107951921D01*
X140373428Y-107885516D01*
X140400780Y-107858909D01*
X140444603Y-107827650D01*
X140579860Y-107731173D01*
X140738096Y-107573489D01*
X140742661Y-107567137D01*
X140865435Y-107396277D01*
X140868453Y-107392077D01*
X140873206Y-107382461D01*
X140965136Y-107196453D01*
X140965137Y-107196451D01*
X140967430Y-107191811D01*
X141032370Y-106978069D01*
X141061529Y-106756590D01*
X141063156Y-106690000D01*
X141044852Y-106467361D01*
X140990431Y-106250702D01*
X140901354Y-106045840D01*
X140780014Y-105858277D01*
X140629670Y-105693051D01*
X140625619Y-105689852D01*
X140625615Y-105689848D01*
X140458414Y-105557800D01*
X140458410Y-105557798D01*
X140454359Y-105554598D01*
X140413053Y-105531796D01*
X140363084Y-105481364D01*
X140348312Y-105411921D01*
X140373428Y-105345516D01*
X140400780Y-105318909D01*
X140444603Y-105287650D01*
X140579860Y-105191173D01*
X140738096Y-105033489D01*
X140742661Y-105027137D01*
X140865435Y-104856277D01*
X140868453Y-104852077D01*
X140873206Y-104842461D01*
X140965136Y-104656453D01*
X140965137Y-104656451D01*
X140967430Y-104651811D01*
X141032370Y-104438069D01*
X141061529Y-104216590D01*
X141063156Y-104150000D01*
X141044852Y-103927361D01*
X140990431Y-103710702D01*
X140901354Y-103505840D01*
X140780014Y-103318277D01*
X140629670Y-103153051D01*
X140625619Y-103149852D01*
X140625615Y-103149848D01*
X140458414Y-103017800D01*
X140458410Y-103017798D01*
X140454359Y-103014598D01*
X140442045Y-103007800D01*
X140412569Y-102991529D01*
X140362598Y-102941097D01*
X140347826Y-102871654D01*
X140372942Y-102805248D01*
X140400294Y-102778641D01*
X140575328Y-102653792D01*
X140583200Y-102647139D01*
X140734052Y-102496812D01*
X140740730Y-102488965D01*
X140865003Y-102316020D01*
X140870313Y-102307183D01*
X140964670Y-102116267D01*
X140968469Y-102106672D01*
X141030377Y-101902910D01*
X141032555Y-101892837D01*
X141033986Y-101881962D01*
X141031775Y-101867778D01*
X141018617Y-101864000D01*
X139572000Y-101864000D01*
X139503879Y-101843998D01*
X139457386Y-101790342D01*
X139446000Y-101738000D01*
X139446000Y-101482000D01*
X139466002Y-101413879D01*
X139519658Y-101367386D01*
X139572000Y-101356000D01*
X141018344Y-101356000D01*
X141031875Y-101352027D01*
X141033180Y-101342947D01*
X140991214Y-101175875D01*
X140987894Y-101166124D01*
X140902972Y-100970814D01*
X140898105Y-100961739D01*
X140782426Y-100782926D01*
X140776136Y-100774757D01*
X140632806Y-100617240D01*
X140625273Y-100610215D01*
X140458139Y-100478222D01*
X140449556Y-100472520D01*
X140412602Y-100452120D01*
X140362631Y-100401687D01*
X140347859Y-100332245D01*
X140372975Y-100265839D01*
X140400327Y-100239232D01*
X140437515Y-100212706D01*
X140579860Y-100111173D01*
X140738096Y-99953489D01*
X140742661Y-99947137D01*
X140865435Y-99776277D01*
X140868453Y-99772077D01*
X140873206Y-99762461D01*
X140965136Y-99576453D01*
X140965137Y-99576451D01*
X140967430Y-99571811D01*
X141032370Y-99358069D01*
X141061529Y-99136590D01*
X141063156Y-99070000D01*
X141059596Y-99026695D01*
X147227251Y-99026695D01*
X147227548Y-99031848D01*
X147227548Y-99031851D01*
X147233011Y-99126590D01*
X147240110Y-99249715D01*
X147241247Y-99254761D01*
X147241248Y-99254767D01*
X147261119Y-99342939D01*
X147289222Y-99467639D01*
X147373266Y-99674616D01*
X147375965Y-99679020D01*
X147473405Y-99838028D01*
X147489987Y-99865088D01*
X147636250Y-100033938D01*
X147640225Y-100037238D01*
X147640231Y-100037244D01*
X147645425Y-100041556D01*
X147685059Y-100100460D01*
X147686555Y-100171441D01*
X147649439Y-100231962D01*
X147609168Y-100256480D01*
X147501946Y-100296676D01*
X147486351Y-100305214D01*
X147384276Y-100381715D01*
X147371715Y-100394276D01*
X147295214Y-100496351D01*
X147286676Y-100511946D01*
X147241522Y-100632394D01*
X147237895Y-100647649D01*
X147232369Y-100698514D01*
X147232000Y-100705328D01*
X147232000Y-101327885D01*
X147236475Y-101343124D01*
X147237865Y-101344329D01*
X147245548Y-101346000D01*
X149929884Y-101346000D01*
X149945123Y-101341525D01*
X149946328Y-101340135D01*
X149947999Y-101332452D01*
X149947999Y-100705331D01*
X149947629Y-100698510D01*
X149942105Y-100647648D01*
X149938479Y-100632396D01*
X149893324Y-100511946D01*
X149884786Y-100496351D01*
X149808285Y-100394276D01*
X149795724Y-100381715D01*
X149693649Y-100305214D01*
X149678054Y-100296676D01*
X149567813Y-100255348D01*
X149511049Y-100212706D01*
X149486349Y-100146145D01*
X149501557Y-100076796D01*
X149523104Y-100048115D01*
X149624430Y-99947144D01*
X149624440Y-99947132D01*
X149628096Y-99943489D01*
X149687594Y-99860689D01*
X149755435Y-99766277D01*
X149758453Y-99762077D01*
X149767979Y-99742804D01*
X149855136Y-99566453D01*
X149855137Y-99566451D01*
X149857430Y-99561811D01*
X149922370Y-99348069D01*
X149951529Y-99126590D01*
X149951611Y-99123240D01*
X149953074Y-99063365D01*
X149953074Y-99063361D01*
X149953156Y-99060000D01*
X149950418Y-99026695D01*
X165007251Y-99026695D01*
X165007548Y-99031848D01*
X165007548Y-99031851D01*
X165013011Y-99126590D01*
X165020110Y-99249715D01*
X165021247Y-99254761D01*
X165021248Y-99254767D01*
X165041119Y-99342939D01*
X165069222Y-99467639D01*
X165153266Y-99674616D01*
X165155965Y-99679020D01*
X165253405Y-99838028D01*
X165269987Y-99865088D01*
X165416250Y-100033938D01*
X165420225Y-100037238D01*
X165420231Y-100037244D01*
X165425425Y-100041556D01*
X165465059Y-100100460D01*
X165466555Y-100171441D01*
X165429439Y-100231962D01*
X165389168Y-100256480D01*
X165281946Y-100296676D01*
X165266351Y-100305214D01*
X165164276Y-100381715D01*
X165151715Y-100394276D01*
X165075214Y-100496351D01*
X165066676Y-100511946D01*
X165021522Y-100632394D01*
X165017895Y-100647649D01*
X165012369Y-100698514D01*
X165012000Y-100705328D01*
X165012000Y-101327885D01*
X165016475Y-101343124D01*
X165017865Y-101344329D01*
X165025548Y-101346000D01*
X167709884Y-101346000D01*
X167725123Y-101341525D01*
X167726328Y-101340135D01*
X167727999Y-101332452D01*
X167727999Y-100705331D01*
X167727629Y-100698510D01*
X167722105Y-100647648D01*
X167718479Y-100632396D01*
X167673324Y-100511946D01*
X167664786Y-100496351D01*
X167588285Y-100394276D01*
X167575724Y-100381715D01*
X167473649Y-100305214D01*
X167458054Y-100296676D01*
X167347813Y-100255348D01*
X167291049Y-100212706D01*
X167266349Y-100146145D01*
X167281557Y-100076796D01*
X167303104Y-100048115D01*
X167404430Y-99947144D01*
X167404440Y-99947132D01*
X167408096Y-99943489D01*
X167467594Y-99860689D01*
X167535435Y-99766277D01*
X167538453Y-99762077D01*
X167547979Y-99742804D01*
X167635136Y-99566453D01*
X167635137Y-99566451D01*
X167637430Y-99561811D01*
X167702370Y-99348069D01*
X167731529Y-99126590D01*
X167731611Y-99123240D01*
X167733074Y-99063365D01*
X167733074Y-99063361D01*
X167733156Y-99060000D01*
X167714852Y-98837361D01*
X167660431Y-98620702D01*
X167571354Y-98415840D01*
X167459291Y-98242617D01*
X167452822Y-98232617D01*
X167452820Y-98232614D01*
X167450014Y-98228277D01*
X167299670Y-98063051D01*
X167295619Y-98059852D01*
X167295615Y-98059848D01*
X167128414Y-97927800D01*
X167128410Y-97927798D01*
X167124359Y-97924598D01*
X167083053Y-97901796D01*
X167033084Y-97851364D01*
X167018312Y-97781921D01*
X167043428Y-97715516D01*
X167070780Y-97688909D01*
X167134684Y-97643327D01*
X167249860Y-97561173D01*
X167408096Y-97403489D01*
X167467594Y-97320689D01*
X167535435Y-97226277D01*
X167538453Y-97222077D01*
X167547979Y-97202804D01*
X167635136Y-97026453D01*
X167635137Y-97026451D01*
X167637430Y-97021811D01*
X167702370Y-96808069D01*
X167731529Y-96586590D01*
X167731611Y-96583240D01*
X167733074Y-96523365D01*
X167733074Y-96523361D01*
X167733156Y-96520000D01*
X167714852Y-96297361D01*
X167660431Y-96080702D01*
X167571354Y-95875840D01*
X167459291Y-95702617D01*
X167452822Y-95692617D01*
X167452820Y-95692614D01*
X167450014Y-95688277D01*
X167299670Y-95523051D01*
X167295619Y-95519852D01*
X167295615Y-95519848D01*
X167128414Y-95387800D01*
X167128410Y-95387798D01*
X167124359Y-95384598D01*
X167083053Y-95361796D01*
X167033084Y-95311364D01*
X167018312Y-95241921D01*
X167043428Y-95175516D01*
X167070780Y-95148909D01*
X167134684Y-95103327D01*
X167249860Y-95021173D01*
X167408096Y-94863489D01*
X167467594Y-94780689D01*
X167535435Y-94686277D01*
X167538453Y-94682077D01*
X167547979Y-94662804D01*
X167635136Y-94486453D01*
X167635137Y-94486451D01*
X167637430Y-94481811D01*
X167702370Y-94268069D01*
X167731529Y-94046590D01*
X167731611Y-94043240D01*
X167733074Y-93983365D01*
X167733074Y-93983361D01*
X167733156Y-93980000D01*
X167714852Y-93757361D01*
X167660431Y-93540702D01*
X167571354Y-93335840D01*
X167459291Y-93162617D01*
X167452822Y-93152617D01*
X167452820Y-93152614D01*
X167450014Y-93148277D01*
X167299670Y-92983051D01*
X167295619Y-92979852D01*
X167295615Y-92979848D01*
X167128414Y-92847800D01*
X167128410Y-92847798D01*
X167124359Y-92844598D01*
X167083053Y-92821796D01*
X167033084Y-92771364D01*
X167018312Y-92701921D01*
X167043428Y-92635516D01*
X167070780Y-92608909D01*
X167134684Y-92563327D01*
X167249860Y-92481173D01*
X167408096Y-92323489D01*
X167467594Y-92240689D01*
X167535435Y-92146277D01*
X167538453Y-92142077D01*
X167547979Y-92122804D01*
X167635136Y-91946453D01*
X167635137Y-91946451D01*
X167637430Y-91941811D01*
X167702370Y-91728069D01*
X167731529Y-91506590D01*
X167731611Y-91503240D01*
X167733074Y-91443365D01*
X167733074Y-91443361D01*
X167733156Y-91440000D01*
X167714852Y-91217361D01*
X167660431Y-91000702D01*
X167571354Y-90795840D01*
X167459291Y-90622617D01*
X167452822Y-90612617D01*
X167452820Y-90612614D01*
X167450014Y-90608277D01*
X167435329Y-90592138D01*
X167302798Y-90446488D01*
X167271746Y-90382642D01*
X167280141Y-90312143D01*
X167325317Y-90257375D01*
X167351761Y-90243706D01*
X167458297Y-90203767D01*
X167466705Y-90200615D01*
X167583261Y-90113261D01*
X167670615Y-89996705D01*
X167721745Y-89860316D01*
X167728500Y-89798134D01*
X167728500Y-88001866D01*
X167721745Y-87939684D01*
X167670615Y-87803295D01*
X167583261Y-87686739D01*
X167466705Y-87599385D01*
X167439905Y-87589338D01*
X167348203Y-87554960D01*
X167291439Y-87512318D01*
X167266739Y-87445756D01*
X167281947Y-87376408D01*
X167303493Y-87347727D01*
X167398061Y-87253489D01*
X167408096Y-87243489D01*
X167467594Y-87160689D01*
X167535435Y-87066277D01*
X167538453Y-87062077D01*
X167547979Y-87042804D01*
X167635136Y-86866453D01*
X167635137Y-86866451D01*
X167637430Y-86861811D01*
X167702370Y-86648069D01*
X167731529Y-86426590D01*
X167731611Y-86423240D01*
X167733074Y-86363365D01*
X167733074Y-86363361D01*
X167733156Y-86360000D01*
X167714852Y-86137361D01*
X167660431Y-85920702D01*
X167571354Y-85715840D01*
X167459291Y-85542617D01*
X167452822Y-85532617D01*
X167452820Y-85532614D01*
X167450014Y-85528277D01*
X167299670Y-85363051D01*
X167295619Y-85359852D01*
X167295615Y-85359848D01*
X167128414Y-85227800D01*
X167128410Y-85227798D01*
X167124359Y-85224598D01*
X167083053Y-85201796D01*
X167033084Y-85151364D01*
X167018312Y-85081921D01*
X167043428Y-85015516D01*
X167070780Y-84988909D01*
X167134684Y-84943327D01*
X167249860Y-84861173D01*
X167408096Y-84703489D01*
X167467594Y-84620689D01*
X167535435Y-84526277D01*
X167538453Y-84522077D01*
X167547979Y-84502804D01*
X167635136Y-84326453D01*
X167635137Y-84326451D01*
X167637430Y-84321811D01*
X167702370Y-84108069D01*
X167731529Y-83886590D01*
X167731611Y-83883240D01*
X167733074Y-83823365D01*
X167733074Y-83823361D01*
X167733156Y-83820000D01*
X167714852Y-83597361D01*
X167660431Y-83380702D01*
X167571354Y-83175840D01*
X167459291Y-83002617D01*
X167452822Y-82992617D01*
X167452820Y-82992614D01*
X167450014Y-82988277D01*
X167299670Y-82823051D01*
X167295619Y-82819852D01*
X167295615Y-82819848D01*
X167128414Y-82687800D01*
X167128410Y-82687798D01*
X167124359Y-82684598D01*
X167083053Y-82661796D01*
X167033084Y-82611364D01*
X167018312Y-82541921D01*
X167043428Y-82475516D01*
X167070780Y-82448909D01*
X167134684Y-82403327D01*
X167249860Y-82321173D01*
X167408096Y-82163489D01*
X167467594Y-82080689D01*
X167535435Y-81986277D01*
X167538453Y-81982077D01*
X167547979Y-81962804D01*
X167635136Y-81786453D01*
X167635137Y-81786451D01*
X167637430Y-81781811D01*
X167702370Y-81568069D01*
X167731529Y-81346590D01*
X167731611Y-81343240D01*
X167733074Y-81283365D01*
X167733074Y-81283361D01*
X167733156Y-81280000D01*
X167714852Y-81057361D01*
X167660431Y-80840702D01*
X167571354Y-80635840D01*
X167459291Y-80462617D01*
X167452822Y-80452617D01*
X167452820Y-80452614D01*
X167450014Y-80448277D01*
X167299670Y-80283051D01*
X167295619Y-80279852D01*
X167295615Y-80279848D01*
X167128414Y-80147800D01*
X167128410Y-80147798D01*
X167124359Y-80144598D01*
X167083053Y-80121796D01*
X167033084Y-80071364D01*
X167018312Y-80001921D01*
X167043428Y-79935516D01*
X167070780Y-79908909D01*
X167134684Y-79863327D01*
X167249860Y-79781173D01*
X167408096Y-79623489D01*
X167467594Y-79540689D01*
X167535435Y-79446277D01*
X167538453Y-79442077D01*
X167547979Y-79422804D01*
X167635136Y-79246453D01*
X167635137Y-79246451D01*
X167637430Y-79241811D01*
X167702370Y-79028069D01*
X167731529Y-78806590D01*
X167731611Y-78803240D01*
X167733074Y-78743365D01*
X167733074Y-78743361D01*
X167733156Y-78740000D01*
X167714852Y-78517361D01*
X167660431Y-78300702D01*
X167571354Y-78095840D01*
X167459291Y-77922617D01*
X167452822Y-77912617D01*
X167452820Y-77912614D01*
X167450014Y-77908277D01*
X167446538Y-77904457D01*
X167446533Y-77904450D01*
X167302435Y-77746088D01*
X167271383Y-77682242D01*
X167279779Y-77611744D01*
X167324956Y-77556976D01*
X167351400Y-77543307D01*
X167458052Y-77503325D01*
X167473649Y-77494786D01*
X167575724Y-77418285D01*
X167588285Y-77405724D01*
X167664786Y-77303649D01*
X167673324Y-77288054D01*
X167718478Y-77167606D01*
X167722105Y-77152351D01*
X167727631Y-77101486D01*
X167728000Y-77094672D01*
X167728000Y-76472115D01*
X167723525Y-76456876D01*
X167722135Y-76455671D01*
X167714452Y-76454000D01*
X165030116Y-76454000D01*
X165014877Y-76458475D01*
X165013672Y-76459865D01*
X165012001Y-76467548D01*
X165012001Y-77094669D01*
X165012371Y-77101490D01*
X165017895Y-77152352D01*
X165021521Y-77167604D01*
X165066676Y-77288054D01*
X165075214Y-77303649D01*
X165151715Y-77405724D01*
X165164276Y-77418285D01*
X165266351Y-77494786D01*
X165281946Y-77503324D01*
X165390827Y-77544142D01*
X165447591Y-77586784D01*
X165472291Y-77653345D01*
X165457083Y-77722694D01*
X165437691Y-77749175D01*
X165430338Y-77756870D01*
X165310629Y-77882138D01*
X165307715Y-77886410D01*
X165307714Y-77886411D01*
X165295409Y-77904450D01*
X165184743Y-78066680D01*
X165090688Y-78269305D01*
X165030989Y-78484570D01*
X165007251Y-78706695D01*
X165007548Y-78711848D01*
X165007548Y-78711851D01*
X165013011Y-78806590D01*
X165020110Y-78929715D01*
X165021247Y-78934761D01*
X165021248Y-78934767D01*
X165041119Y-79022939D01*
X165069222Y-79147639D01*
X165153266Y-79354616D01*
X165155965Y-79359020D01*
X165253405Y-79518028D01*
X165269987Y-79545088D01*
X165416250Y-79713938D01*
X165588126Y-79856632D01*
X165605239Y-79866632D01*
X165661445Y-79899476D01*
X165710169Y-79951114D01*
X165723240Y-80020897D01*
X165696509Y-80086669D01*
X165656055Y-80120027D01*
X165643607Y-80126507D01*
X165639474Y-80129610D01*
X165639471Y-80129612D01*
X165469100Y-80257530D01*
X165464965Y-80260635D01*
X165310629Y-80422138D01*
X165307715Y-80426410D01*
X165307714Y-80426411D01*
X165295404Y-80444457D01*
X165184743Y-80606680D01*
X165090688Y-80809305D01*
X165030989Y-81024570D01*
X165007251Y-81246695D01*
X165007548Y-81251848D01*
X165007548Y-81251851D01*
X165013011Y-81346590D01*
X165020110Y-81469715D01*
X165021247Y-81474761D01*
X165021248Y-81474767D01*
X165041119Y-81562939D01*
X165069222Y-81687639D01*
X165153266Y-81894616D01*
X165155965Y-81899020D01*
X165253405Y-82058028D01*
X165269987Y-82085088D01*
X165416250Y-82253938D01*
X165588126Y-82396632D01*
X165605239Y-82406632D01*
X165661445Y-82439476D01*
X165710169Y-82491114D01*
X165723240Y-82560897D01*
X165696509Y-82626669D01*
X165656055Y-82660027D01*
X165643607Y-82666507D01*
X165639474Y-82669610D01*
X165639471Y-82669612D01*
X165469100Y-82797530D01*
X165464965Y-82800635D01*
X165310629Y-82962138D01*
X165307715Y-82966410D01*
X165307714Y-82966411D01*
X165295404Y-82984457D01*
X165184743Y-83146680D01*
X165090688Y-83349305D01*
X165030989Y-83564570D01*
X165007251Y-83786695D01*
X165007548Y-83791848D01*
X165007548Y-83791851D01*
X165013011Y-83886590D01*
X165020110Y-84009715D01*
X165021247Y-84014761D01*
X165021248Y-84014767D01*
X165041119Y-84102939D01*
X165069222Y-84227639D01*
X165153266Y-84434616D01*
X165155965Y-84439020D01*
X165253405Y-84598028D01*
X165269987Y-84625088D01*
X165416250Y-84793938D01*
X165588126Y-84936632D01*
X165605239Y-84946632D01*
X165661445Y-84979476D01*
X165710169Y-85031114D01*
X165723240Y-85100897D01*
X165696509Y-85166669D01*
X165656055Y-85200027D01*
X165643607Y-85206507D01*
X165639474Y-85209610D01*
X165639471Y-85209612D01*
X165469100Y-85337530D01*
X165464965Y-85340635D01*
X165310629Y-85502138D01*
X165307715Y-85506410D01*
X165307714Y-85506411D01*
X165295404Y-85524457D01*
X165184743Y-85686680D01*
X165090688Y-85889305D01*
X165030989Y-86104570D01*
X165007251Y-86326695D01*
X165007548Y-86331848D01*
X165007548Y-86331851D01*
X165013011Y-86426590D01*
X165020110Y-86549715D01*
X165021247Y-86554761D01*
X165021248Y-86554767D01*
X165041119Y-86642939D01*
X165069222Y-86767639D01*
X165153266Y-86974616D01*
X165155965Y-86979020D01*
X165253405Y-87138028D01*
X165269987Y-87165088D01*
X165416250Y-87333938D01*
X165420230Y-87337242D01*
X165424981Y-87341187D01*
X165464616Y-87400090D01*
X165466113Y-87471071D01*
X165428997Y-87531593D01*
X165388725Y-87556112D01*
X165321238Y-87581412D01*
X165273295Y-87599385D01*
X165156739Y-87686739D01*
X165069385Y-87803295D01*
X165018255Y-87939684D01*
X165011500Y-88001866D01*
X165011500Y-89798134D01*
X165018255Y-89860316D01*
X165069385Y-89996705D01*
X165156739Y-90113261D01*
X165273295Y-90200615D01*
X165281704Y-90203767D01*
X165281705Y-90203768D01*
X165390451Y-90244535D01*
X165447216Y-90287176D01*
X165471916Y-90353738D01*
X165456709Y-90423087D01*
X165437316Y-90449568D01*
X165310629Y-90582138D01*
X165307715Y-90586410D01*
X165307714Y-90586411D01*
X165295409Y-90604450D01*
X165184743Y-90766680D01*
X165090688Y-90969305D01*
X165030989Y-91184570D01*
X165007251Y-91406695D01*
X165007548Y-91411848D01*
X165007548Y-91411851D01*
X165013011Y-91506590D01*
X165020110Y-91629715D01*
X165021247Y-91634761D01*
X165021248Y-91634767D01*
X165041119Y-91722939D01*
X165069222Y-91847639D01*
X165153266Y-92054616D01*
X165155965Y-92059020D01*
X165253405Y-92218028D01*
X165269987Y-92245088D01*
X165416250Y-92413938D01*
X165588126Y-92556632D01*
X165605239Y-92566632D01*
X165661445Y-92599476D01*
X165710169Y-92651114D01*
X165723240Y-92720897D01*
X165696509Y-92786669D01*
X165656055Y-92820027D01*
X165643607Y-92826507D01*
X165639474Y-92829610D01*
X165639471Y-92829612D01*
X165469100Y-92957530D01*
X165464965Y-92960635D01*
X165310629Y-93122138D01*
X165307715Y-93126410D01*
X165307714Y-93126411D01*
X165295404Y-93144457D01*
X165184743Y-93306680D01*
X165090688Y-93509305D01*
X165030989Y-93724570D01*
X165007251Y-93946695D01*
X165007548Y-93951848D01*
X165007548Y-93951851D01*
X165013011Y-94046590D01*
X165020110Y-94169715D01*
X165021247Y-94174761D01*
X165021248Y-94174767D01*
X165041119Y-94262939D01*
X165069222Y-94387639D01*
X165153266Y-94594616D01*
X165155965Y-94599020D01*
X165253405Y-94758028D01*
X165269987Y-94785088D01*
X165416250Y-94953938D01*
X165588126Y-95096632D01*
X165605239Y-95106632D01*
X165661445Y-95139476D01*
X165710169Y-95191114D01*
X165723240Y-95260897D01*
X165696509Y-95326669D01*
X165656055Y-95360027D01*
X165643607Y-95366507D01*
X165639474Y-95369610D01*
X165639471Y-95369612D01*
X165469100Y-95497530D01*
X165464965Y-95500635D01*
X165310629Y-95662138D01*
X165307715Y-95666410D01*
X165307714Y-95666411D01*
X165295404Y-95684457D01*
X165184743Y-95846680D01*
X165090688Y-96049305D01*
X165030989Y-96264570D01*
X165007251Y-96486695D01*
X165007548Y-96491848D01*
X165007548Y-96491851D01*
X165013011Y-96586590D01*
X165020110Y-96709715D01*
X165021247Y-96714761D01*
X165021248Y-96714767D01*
X165041119Y-96802939D01*
X165069222Y-96927639D01*
X165153266Y-97134616D01*
X165155965Y-97139020D01*
X165253405Y-97298028D01*
X165269987Y-97325088D01*
X165416250Y-97493938D01*
X165588126Y-97636632D01*
X165605239Y-97646632D01*
X165661445Y-97679476D01*
X165710169Y-97731114D01*
X165723240Y-97800897D01*
X165696509Y-97866669D01*
X165656055Y-97900027D01*
X165643607Y-97906507D01*
X165639474Y-97909610D01*
X165639471Y-97909612D01*
X165469100Y-98037530D01*
X165464965Y-98040635D01*
X165310629Y-98202138D01*
X165307715Y-98206410D01*
X165307714Y-98206411D01*
X165295404Y-98224457D01*
X165184743Y-98386680D01*
X165090688Y-98589305D01*
X165030989Y-98804570D01*
X165007251Y-99026695D01*
X149950418Y-99026695D01*
X149934852Y-98837361D01*
X149880431Y-98620702D01*
X149791354Y-98415840D01*
X149679291Y-98242617D01*
X149672822Y-98232617D01*
X149672820Y-98232614D01*
X149670014Y-98228277D01*
X149519670Y-98063051D01*
X149515619Y-98059852D01*
X149515615Y-98059848D01*
X149348414Y-97927800D01*
X149348410Y-97927798D01*
X149344359Y-97924598D01*
X149303053Y-97901796D01*
X149253084Y-97851364D01*
X149238312Y-97781921D01*
X149263428Y-97715516D01*
X149290780Y-97688909D01*
X149354684Y-97643327D01*
X149469860Y-97561173D01*
X149628096Y-97403489D01*
X149687594Y-97320689D01*
X149755435Y-97226277D01*
X149758453Y-97222077D01*
X149767979Y-97202804D01*
X149855136Y-97026453D01*
X149855137Y-97026451D01*
X149857430Y-97021811D01*
X149922370Y-96808069D01*
X149951529Y-96586590D01*
X149951611Y-96583240D01*
X149953074Y-96523365D01*
X149953074Y-96523361D01*
X149953156Y-96520000D01*
X149934852Y-96297361D01*
X149880431Y-96080702D01*
X149791354Y-95875840D01*
X149679291Y-95702617D01*
X149672822Y-95692617D01*
X149672820Y-95692614D01*
X149670014Y-95688277D01*
X149519670Y-95523051D01*
X149515619Y-95519852D01*
X149515615Y-95519848D01*
X149348414Y-95387800D01*
X149348410Y-95387798D01*
X149344359Y-95384598D01*
X149303053Y-95361796D01*
X149253084Y-95311364D01*
X149238312Y-95241921D01*
X149263428Y-95175516D01*
X149290780Y-95148909D01*
X149354684Y-95103327D01*
X149469860Y-95021173D01*
X149628096Y-94863489D01*
X149687594Y-94780689D01*
X149755435Y-94686277D01*
X149758453Y-94682077D01*
X149767979Y-94662804D01*
X149855136Y-94486453D01*
X149855137Y-94486451D01*
X149857430Y-94481811D01*
X149922370Y-94268069D01*
X149951529Y-94046590D01*
X149951611Y-94043240D01*
X149953074Y-93983365D01*
X149953074Y-93983361D01*
X149953156Y-93980000D01*
X149934852Y-93757361D01*
X149880431Y-93540702D01*
X149791354Y-93335840D01*
X149679291Y-93162617D01*
X149672822Y-93152617D01*
X149672820Y-93152614D01*
X149670014Y-93148277D01*
X149519670Y-92983051D01*
X149515619Y-92979852D01*
X149515615Y-92979848D01*
X149348414Y-92847800D01*
X149348410Y-92847798D01*
X149344359Y-92844598D01*
X149303053Y-92821796D01*
X149253084Y-92771364D01*
X149238312Y-92701921D01*
X149263428Y-92635516D01*
X149290780Y-92608909D01*
X149354684Y-92563327D01*
X149469860Y-92481173D01*
X149628096Y-92323489D01*
X149687594Y-92240689D01*
X149755435Y-92146277D01*
X149758453Y-92142077D01*
X149767979Y-92122804D01*
X149855136Y-91946453D01*
X149855137Y-91946451D01*
X149857430Y-91941811D01*
X149922370Y-91728069D01*
X149951529Y-91506590D01*
X149951611Y-91503240D01*
X149953074Y-91443365D01*
X149953074Y-91443361D01*
X149953156Y-91440000D01*
X149934852Y-91217361D01*
X149880431Y-91000702D01*
X149791354Y-90795840D01*
X149679291Y-90622617D01*
X149672822Y-90612617D01*
X149672820Y-90612614D01*
X149670014Y-90608277D01*
X149666538Y-90604457D01*
X149666533Y-90604450D01*
X149522435Y-90446088D01*
X149491383Y-90382242D01*
X149499779Y-90311744D01*
X149544956Y-90256976D01*
X149571400Y-90243307D01*
X149678052Y-90203325D01*
X149693649Y-90194786D01*
X149795724Y-90118285D01*
X149808285Y-90105724D01*
X149884786Y-90003649D01*
X149893324Y-89988054D01*
X149938478Y-89867606D01*
X149942105Y-89852351D01*
X149947631Y-89801486D01*
X149948000Y-89794672D01*
X149948000Y-89172115D01*
X149943525Y-89156876D01*
X149942135Y-89155671D01*
X149934452Y-89154000D01*
X147250116Y-89154000D01*
X147234877Y-89158475D01*
X147233672Y-89159865D01*
X147232001Y-89167548D01*
X147232001Y-89794669D01*
X147232371Y-89801490D01*
X147237895Y-89852352D01*
X147241521Y-89867604D01*
X147286676Y-89988054D01*
X147295214Y-90003649D01*
X147371715Y-90105724D01*
X147384276Y-90118285D01*
X147486351Y-90194786D01*
X147501946Y-90203324D01*
X147610827Y-90244142D01*
X147667591Y-90286784D01*
X147692291Y-90353345D01*
X147677083Y-90422694D01*
X147657691Y-90449175D01*
X147650338Y-90456870D01*
X147530629Y-90582138D01*
X147527715Y-90586410D01*
X147527714Y-90586411D01*
X147515409Y-90604450D01*
X147404743Y-90766680D01*
X147310688Y-90969305D01*
X147250989Y-91184570D01*
X147227251Y-91406695D01*
X147227548Y-91411848D01*
X147227548Y-91411851D01*
X147233011Y-91506590D01*
X147240110Y-91629715D01*
X147241247Y-91634761D01*
X147241248Y-91634767D01*
X147261119Y-91722939D01*
X147289222Y-91847639D01*
X147373266Y-92054616D01*
X147375965Y-92059020D01*
X147473405Y-92218028D01*
X147489987Y-92245088D01*
X147636250Y-92413938D01*
X147808126Y-92556632D01*
X147825239Y-92566632D01*
X147881445Y-92599476D01*
X147930169Y-92651114D01*
X147943240Y-92720897D01*
X147916509Y-92786669D01*
X147876055Y-92820027D01*
X147863607Y-92826507D01*
X147859474Y-92829610D01*
X147859471Y-92829612D01*
X147689100Y-92957530D01*
X147684965Y-92960635D01*
X147530629Y-93122138D01*
X147527715Y-93126410D01*
X147527714Y-93126411D01*
X147515404Y-93144457D01*
X147404743Y-93306680D01*
X147310688Y-93509305D01*
X147250989Y-93724570D01*
X147227251Y-93946695D01*
X147227548Y-93951848D01*
X147227548Y-93951851D01*
X147233011Y-94046590D01*
X147240110Y-94169715D01*
X147241247Y-94174761D01*
X147241248Y-94174767D01*
X147261119Y-94262939D01*
X147289222Y-94387639D01*
X147373266Y-94594616D01*
X147375965Y-94599020D01*
X147473405Y-94758028D01*
X147489987Y-94785088D01*
X147636250Y-94953938D01*
X147808126Y-95096632D01*
X147825239Y-95106632D01*
X147881445Y-95139476D01*
X147930169Y-95191114D01*
X147943240Y-95260897D01*
X147916509Y-95326669D01*
X147876055Y-95360027D01*
X147863607Y-95366507D01*
X147859474Y-95369610D01*
X147859471Y-95369612D01*
X147689100Y-95497530D01*
X147684965Y-95500635D01*
X147530629Y-95662138D01*
X147527715Y-95666410D01*
X147527714Y-95666411D01*
X147515404Y-95684457D01*
X147404743Y-95846680D01*
X147310688Y-96049305D01*
X147250989Y-96264570D01*
X147227251Y-96486695D01*
X147227548Y-96491848D01*
X147227548Y-96491851D01*
X147233011Y-96586590D01*
X147240110Y-96709715D01*
X147241247Y-96714761D01*
X147241248Y-96714767D01*
X147261119Y-96802939D01*
X147289222Y-96927639D01*
X147373266Y-97134616D01*
X147375965Y-97139020D01*
X147473405Y-97298028D01*
X147489987Y-97325088D01*
X147636250Y-97493938D01*
X147808126Y-97636632D01*
X147825239Y-97646632D01*
X147881445Y-97679476D01*
X147930169Y-97731114D01*
X147943240Y-97800897D01*
X147916509Y-97866669D01*
X147876055Y-97900027D01*
X147863607Y-97906507D01*
X147859474Y-97909610D01*
X147859471Y-97909612D01*
X147689100Y-98037530D01*
X147684965Y-98040635D01*
X147530629Y-98202138D01*
X147527715Y-98206410D01*
X147527714Y-98206411D01*
X147515404Y-98224457D01*
X147404743Y-98386680D01*
X147310688Y-98589305D01*
X147250989Y-98804570D01*
X147227251Y-99026695D01*
X141059596Y-99026695D01*
X141044852Y-98847361D01*
X140990431Y-98630702D01*
X140901354Y-98425840D01*
X140780014Y-98238277D01*
X140629670Y-98073051D01*
X140625619Y-98069852D01*
X140625615Y-98069848D01*
X140458414Y-97937800D01*
X140458410Y-97937798D01*
X140454359Y-97934598D01*
X140413053Y-97911796D01*
X140363084Y-97861364D01*
X140348312Y-97791921D01*
X140373428Y-97725516D01*
X140400780Y-97698909D01*
X140444603Y-97667650D01*
X140579860Y-97571173D01*
X140738096Y-97413489D01*
X140742661Y-97407137D01*
X140865435Y-97236277D01*
X140868453Y-97232077D01*
X140873206Y-97222461D01*
X140965136Y-97036453D01*
X140965137Y-97036451D01*
X140967430Y-97031811D01*
X141032370Y-96818069D01*
X141061529Y-96596590D01*
X141063156Y-96530000D01*
X141044852Y-96307361D01*
X140990431Y-96090702D01*
X140901354Y-95885840D01*
X140780014Y-95698277D01*
X140629670Y-95533051D01*
X140625619Y-95529852D01*
X140625615Y-95529848D01*
X140458414Y-95397800D01*
X140458410Y-95397798D01*
X140454359Y-95394598D01*
X140413053Y-95371796D01*
X140363084Y-95321364D01*
X140348312Y-95251921D01*
X140373428Y-95185516D01*
X140400780Y-95158909D01*
X140444603Y-95127650D01*
X140579860Y-95031173D01*
X140738096Y-94873489D01*
X140742661Y-94867137D01*
X140865435Y-94696277D01*
X140868453Y-94692077D01*
X140873206Y-94682461D01*
X140965136Y-94496453D01*
X140965137Y-94496451D01*
X140967430Y-94491811D01*
X141032370Y-94278069D01*
X141061529Y-94056590D01*
X141063156Y-93990000D01*
X141044852Y-93767361D01*
X140990431Y-93550702D01*
X140901354Y-93345840D01*
X140780014Y-93158277D01*
X140629670Y-92993051D01*
X140625619Y-92989852D01*
X140625615Y-92989848D01*
X140458414Y-92857800D01*
X140458410Y-92857798D01*
X140454359Y-92854598D01*
X140413053Y-92831796D01*
X140363084Y-92781364D01*
X140348312Y-92711921D01*
X140373428Y-92645516D01*
X140400780Y-92618909D01*
X140444603Y-92587650D01*
X140579860Y-92491173D01*
X140738096Y-92333489D01*
X140742661Y-92327137D01*
X140865435Y-92156277D01*
X140868453Y-92152077D01*
X140873206Y-92142461D01*
X140965136Y-91956453D01*
X140965137Y-91956451D01*
X140967430Y-91951811D01*
X141032370Y-91738069D01*
X141061529Y-91516590D01*
X141063156Y-91450000D01*
X141044852Y-91227361D01*
X140990431Y-91010702D01*
X140901354Y-90805840D01*
X140780014Y-90618277D01*
X140629670Y-90453051D01*
X140625619Y-90449852D01*
X140625615Y-90449848D01*
X140458414Y-90317800D01*
X140458410Y-90317798D01*
X140454359Y-90314598D01*
X140442045Y-90307800D01*
X140412569Y-90291529D01*
X140362598Y-90241097D01*
X140347826Y-90171654D01*
X140372942Y-90105248D01*
X140400294Y-90078641D01*
X140575328Y-89953792D01*
X140583200Y-89947139D01*
X140734052Y-89796812D01*
X140740730Y-89788965D01*
X140865003Y-89616020D01*
X140870313Y-89607183D01*
X140964670Y-89416267D01*
X140968469Y-89406672D01*
X141030377Y-89202910D01*
X141032555Y-89192837D01*
X141033986Y-89181962D01*
X141031775Y-89167778D01*
X141018617Y-89164000D01*
X139572000Y-89164000D01*
X139503879Y-89143998D01*
X139457386Y-89090342D01*
X139446000Y-89038000D01*
X139446000Y-88782000D01*
X139466002Y-88713879D01*
X139519658Y-88667386D01*
X139572000Y-88656000D01*
X141018344Y-88656000D01*
X141031875Y-88652027D01*
X141033180Y-88642947D01*
X140991214Y-88475875D01*
X140987894Y-88466124D01*
X140902972Y-88270814D01*
X140898105Y-88261739D01*
X140782426Y-88082926D01*
X140776136Y-88074757D01*
X140632806Y-87917240D01*
X140625273Y-87910215D01*
X140458139Y-87778222D01*
X140449556Y-87772520D01*
X140412602Y-87752120D01*
X140362631Y-87701687D01*
X140347859Y-87632245D01*
X140372975Y-87565839D01*
X140400327Y-87539232D01*
X140438059Y-87512318D01*
X140579860Y-87411173D01*
X140738096Y-87253489D01*
X140742661Y-87247137D01*
X140865435Y-87076277D01*
X140868453Y-87072077D01*
X140873206Y-87062461D01*
X140965136Y-86876453D01*
X140965137Y-86876451D01*
X140967430Y-86871811D01*
X141032370Y-86658069D01*
X141061529Y-86436590D01*
X141063156Y-86370000D01*
X141059596Y-86326695D01*
X147227251Y-86326695D01*
X147227548Y-86331848D01*
X147227548Y-86331851D01*
X147233011Y-86426590D01*
X147240110Y-86549715D01*
X147241247Y-86554761D01*
X147241248Y-86554767D01*
X147261119Y-86642939D01*
X147289222Y-86767639D01*
X147373266Y-86974616D01*
X147375965Y-86979020D01*
X147473405Y-87138028D01*
X147489987Y-87165088D01*
X147636250Y-87333938D01*
X147640225Y-87337238D01*
X147640231Y-87337244D01*
X147645425Y-87341556D01*
X147685059Y-87400460D01*
X147686555Y-87471441D01*
X147649439Y-87531962D01*
X147609168Y-87556480D01*
X147501946Y-87596676D01*
X147486351Y-87605214D01*
X147384276Y-87681715D01*
X147371715Y-87694276D01*
X147295214Y-87796351D01*
X147286676Y-87811946D01*
X147241522Y-87932394D01*
X147237895Y-87947649D01*
X147232369Y-87998514D01*
X147232000Y-88005328D01*
X147232000Y-88627885D01*
X147236475Y-88643124D01*
X147237865Y-88644329D01*
X147245548Y-88646000D01*
X149929884Y-88646000D01*
X149945123Y-88641525D01*
X149946328Y-88640135D01*
X149947999Y-88632452D01*
X149947999Y-88005331D01*
X149947629Y-87998510D01*
X149942105Y-87947648D01*
X149938479Y-87932396D01*
X149893324Y-87811946D01*
X149884786Y-87796351D01*
X149808285Y-87694276D01*
X149795724Y-87681715D01*
X149693649Y-87605214D01*
X149678054Y-87596676D01*
X149567813Y-87555348D01*
X149511049Y-87512706D01*
X149486349Y-87446145D01*
X149501557Y-87376796D01*
X149523104Y-87348115D01*
X149624430Y-87247144D01*
X149624440Y-87247132D01*
X149628096Y-87243489D01*
X149687594Y-87160689D01*
X149755435Y-87066277D01*
X149758453Y-87062077D01*
X149767979Y-87042804D01*
X149855136Y-86866453D01*
X149855137Y-86866451D01*
X149857430Y-86861811D01*
X149922370Y-86648069D01*
X149951529Y-86426590D01*
X149951611Y-86423240D01*
X149953074Y-86363365D01*
X149953074Y-86363361D01*
X149953156Y-86360000D01*
X149934852Y-86137361D01*
X149880431Y-85920702D01*
X149791354Y-85715840D01*
X149679291Y-85542617D01*
X149672822Y-85532617D01*
X149672820Y-85532614D01*
X149670014Y-85528277D01*
X149519670Y-85363051D01*
X149515619Y-85359852D01*
X149515615Y-85359848D01*
X149348414Y-85227800D01*
X149348410Y-85227798D01*
X149344359Y-85224598D01*
X149303053Y-85201796D01*
X149253084Y-85151364D01*
X149238312Y-85081921D01*
X149263428Y-85015516D01*
X149290780Y-84988909D01*
X149354684Y-84943327D01*
X149469860Y-84861173D01*
X149628096Y-84703489D01*
X149687594Y-84620689D01*
X149755435Y-84526277D01*
X149758453Y-84522077D01*
X149767979Y-84502804D01*
X149855136Y-84326453D01*
X149855137Y-84326451D01*
X149857430Y-84321811D01*
X149922370Y-84108069D01*
X149951529Y-83886590D01*
X149951611Y-83883240D01*
X149953074Y-83823365D01*
X149953074Y-83823361D01*
X149953156Y-83820000D01*
X149934852Y-83597361D01*
X149880431Y-83380702D01*
X149791354Y-83175840D01*
X149679291Y-83002617D01*
X149672822Y-82992617D01*
X149672820Y-82992614D01*
X149670014Y-82988277D01*
X149519670Y-82823051D01*
X149515619Y-82819852D01*
X149515615Y-82819848D01*
X149348414Y-82687800D01*
X149348410Y-82687798D01*
X149344359Y-82684598D01*
X149303053Y-82661796D01*
X149253084Y-82611364D01*
X149238312Y-82541921D01*
X149263428Y-82475516D01*
X149290780Y-82448909D01*
X149354684Y-82403327D01*
X149469860Y-82321173D01*
X149628096Y-82163489D01*
X149687594Y-82080689D01*
X149755435Y-81986277D01*
X149758453Y-81982077D01*
X149767979Y-81962804D01*
X149855136Y-81786453D01*
X149855137Y-81786451D01*
X149857430Y-81781811D01*
X149922370Y-81568069D01*
X149951529Y-81346590D01*
X149951611Y-81343240D01*
X149953074Y-81283365D01*
X149953074Y-81283361D01*
X149953156Y-81280000D01*
X149934852Y-81057361D01*
X149880431Y-80840702D01*
X149791354Y-80635840D01*
X149679291Y-80462617D01*
X149672822Y-80452617D01*
X149672820Y-80452614D01*
X149670014Y-80448277D01*
X149519670Y-80283051D01*
X149515619Y-80279852D01*
X149515615Y-80279848D01*
X149348414Y-80147800D01*
X149348410Y-80147798D01*
X149344359Y-80144598D01*
X149303053Y-80121796D01*
X149253084Y-80071364D01*
X149238312Y-80001921D01*
X149263428Y-79935516D01*
X149290780Y-79908909D01*
X149354684Y-79863327D01*
X149469860Y-79781173D01*
X149628096Y-79623489D01*
X149687594Y-79540689D01*
X149755435Y-79446277D01*
X149758453Y-79442077D01*
X149767979Y-79422804D01*
X149855136Y-79246453D01*
X149855137Y-79246451D01*
X149857430Y-79241811D01*
X149922370Y-79028069D01*
X149951529Y-78806590D01*
X149951611Y-78803240D01*
X149953074Y-78743365D01*
X149953074Y-78743361D01*
X149953156Y-78740000D01*
X149934852Y-78517361D01*
X149880431Y-78300702D01*
X149791354Y-78095840D01*
X149679291Y-77922617D01*
X149672822Y-77912617D01*
X149672820Y-77912614D01*
X149670014Y-77908277D01*
X149666538Y-77904457D01*
X149666533Y-77904450D01*
X149522435Y-77746088D01*
X149491383Y-77682242D01*
X149499779Y-77611744D01*
X149544956Y-77556976D01*
X149571400Y-77543307D01*
X149678052Y-77503325D01*
X149693649Y-77494786D01*
X149795724Y-77418285D01*
X149808285Y-77405724D01*
X149884786Y-77303649D01*
X149893324Y-77288054D01*
X149938478Y-77167606D01*
X149942105Y-77152351D01*
X149947631Y-77101486D01*
X149948000Y-77094672D01*
X149948000Y-76472115D01*
X149943525Y-76456876D01*
X149942135Y-76455671D01*
X149934452Y-76454000D01*
X147250116Y-76454000D01*
X147234877Y-76458475D01*
X147233672Y-76459865D01*
X147232001Y-76467548D01*
X147232001Y-77094669D01*
X147232371Y-77101490D01*
X147237895Y-77152352D01*
X147241521Y-77167604D01*
X147286676Y-77288054D01*
X147295214Y-77303649D01*
X147371715Y-77405724D01*
X147384276Y-77418285D01*
X147486351Y-77494786D01*
X147501946Y-77503324D01*
X147610827Y-77544142D01*
X147667591Y-77586784D01*
X147692291Y-77653345D01*
X147677083Y-77722694D01*
X147657691Y-77749175D01*
X147650338Y-77756870D01*
X147530629Y-77882138D01*
X147527715Y-77886410D01*
X147527714Y-77886411D01*
X147515409Y-77904450D01*
X147404743Y-78066680D01*
X147310688Y-78269305D01*
X147250989Y-78484570D01*
X147227251Y-78706695D01*
X147227548Y-78711848D01*
X147227548Y-78711851D01*
X147233011Y-78806590D01*
X147240110Y-78929715D01*
X147241247Y-78934761D01*
X147241248Y-78934767D01*
X147261119Y-79022939D01*
X147289222Y-79147639D01*
X147373266Y-79354616D01*
X147375965Y-79359020D01*
X147473405Y-79518028D01*
X147489987Y-79545088D01*
X147636250Y-79713938D01*
X147808126Y-79856632D01*
X147825239Y-79866632D01*
X147881445Y-79899476D01*
X147930169Y-79951114D01*
X147943240Y-80020897D01*
X147916509Y-80086669D01*
X147876055Y-80120027D01*
X147863607Y-80126507D01*
X147859474Y-80129610D01*
X147859471Y-80129612D01*
X147689100Y-80257530D01*
X147684965Y-80260635D01*
X147530629Y-80422138D01*
X147527715Y-80426410D01*
X147527714Y-80426411D01*
X147515404Y-80444457D01*
X147404743Y-80606680D01*
X147310688Y-80809305D01*
X147250989Y-81024570D01*
X147227251Y-81246695D01*
X147227548Y-81251848D01*
X147227548Y-81251851D01*
X147233011Y-81346590D01*
X147240110Y-81469715D01*
X147241247Y-81474761D01*
X147241248Y-81474767D01*
X147261119Y-81562939D01*
X147289222Y-81687639D01*
X147373266Y-81894616D01*
X147375965Y-81899020D01*
X147473405Y-82058028D01*
X147489987Y-82085088D01*
X147636250Y-82253938D01*
X147808126Y-82396632D01*
X147825239Y-82406632D01*
X147881445Y-82439476D01*
X147930169Y-82491114D01*
X147943240Y-82560897D01*
X147916509Y-82626669D01*
X147876055Y-82660027D01*
X147863607Y-82666507D01*
X147859474Y-82669610D01*
X147859471Y-82669612D01*
X147689100Y-82797530D01*
X147684965Y-82800635D01*
X147530629Y-82962138D01*
X147527715Y-82966410D01*
X147527714Y-82966411D01*
X147515404Y-82984457D01*
X147404743Y-83146680D01*
X147310688Y-83349305D01*
X147250989Y-83564570D01*
X147227251Y-83786695D01*
X147227548Y-83791848D01*
X147227548Y-83791851D01*
X147233011Y-83886590D01*
X147240110Y-84009715D01*
X147241247Y-84014761D01*
X147241248Y-84014767D01*
X147261119Y-84102939D01*
X147289222Y-84227639D01*
X147373266Y-84434616D01*
X147375965Y-84439020D01*
X147473405Y-84598028D01*
X147489987Y-84625088D01*
X147636250Y-84793938D01*
X147808126Y-84936632D01*
X147825239Y-84946632D01*
X147881445Y-84979476D01*
X147930169Y-85031114D01*
X147943240Y-85100897D01*
X147916509Y-85166669D01*
X147876055Y-85200027D01*
X147863607Y-85206507D01*
X147859474Y-85209610D01*
X147859471Y-85209612D01*
X147689100Y-85337530D01*
X147684965Y-85340635D01*
X147530629Y-85502138D01*
X147527715Y-85506410D01*
X147527714Y-85506411D01*
X147515404Y-85524457D01*
X147404743Y-85686680D01*
X147310688Y-85889305D01*
X147250989Y-86104570D01*
X147227251Y-86326695D01*
X141059596Y-86326695D01*
X141044852Y-86147361D01*
X140990431Y-85930702D01*
X140901354Y-85725840D01*
X140780014Y-85538277D01*
X140629670Y-85373051D01*
X140625619Y-85369852D01*
X140625615Y-85369848D01*
X140458414Y-85237800D01*
X140458410Y-85237798D01*
X140454359Y-85234598D01*
X140413053Y-85211796D01*
X140363084Y-85161364D01*
X140348312Y-85091921D01*
X140373428Y-85025516D01*
X140400780Y-84998909D01*
X140444603Y-84967650D01*
X140579860Y-84871173D01*
X140738096Y-84713489D01*
X140742661Y-84707137D01*
X140865435Y-84536277D01*
X140868453Y-84532077D01*
X140873206Y-84522461D01*
X140965136Y-84336453D01*
X140965137Y-84336451D01*
X140967430Y-84331811D01*
X141032370Y-84118069D01*
X141061529Y-83896590D01*
X141063156Y-83830000D01*
X141044852Y-83607361D01*
X140990431Y-83390702D01*
X140901354Y-83185840D01*
X140780014Y-82998277D01*
X140629670Y-82833051D01*
X140625619Y-82829852D01*
X140625615Y-82829848D01*
X140458414Y-82697800D01*
X140458410Y-82697798D01*
X140454359Y-82694598D01*
X140413053Y-82671796D01*
X140363084Y-82621364D01*
X140348312Y-82551921D01*
X140373428Y-82485516D01*
X140400780Y-82458909D01*
X140444603Y-82427650D01*
X140579860Y-82331173D01*
X140738096Y-82173489D01*
X140742661Y-82167137D01*
X140865435Y-81996277D01*
X140868453Y-81992077D01*
X140873206Y-81982461D01*
X140965136Y-81796453D01*
X140965137Y-81796451D01*
X140967430Y-81791811D01*
X141032370Y-81578069D01*
X141061529Y-81356590D01*
X141063156Y-81290000D01*
X141044852Y-81067361D01*
X140990431Y-80850702D01*
X140901354Y-80645840D01*
X140780014Y-80458277D01*
X140629670Y-80293051D01*
X140625619Y-80289852D01*
X140625615Y-80289848D01*
X140458414Y-80157800D01*
X140458410Y-80157798D01*
X140454359Y-80154598D01*
X140413053Y-80131796D01*
X140363084Y-80081364D01*
X140348312Y-80011921D01*
X140373428Y-79945516D01*
X140400780Y-79918909D01*
X140444603Y-79887650D01*
X140579860Y-79791173D01*
X140738096Y-79633489D01*
X140742661Y-79627137D01*
X140865435Y-79456277D01*
X140868453Y-79452077D01*
X140873206Y-79442461D01*
X140965136Y-79256453D01*
X140965137Y-79256451D01*
X140967430Y-79251811D01*
X141032370Y-79038069D01*
X141061529Y-78816590D01*
X141063156Y-78750000D01*
X141044852Y-78527361D01*
X140990431Y-78310702D01*
X140901354Y-78105840D01*
X140780014Y-77918277D01*
X140629670Y-77753051D01*
X140625619Y-77749852D01*
X140625615Y-77749848D01*
X140458414Y-77617800D01*
X140458410Y-77617798D01*
X140454359Y-77614598D01*
X140442045Y-77607800D01*
X140412569Y-77591529D01*
X140362598Y-77541097D01*
X140347826Y-77471654D01*
X140372942Y-77405248D01*
X140400294Y-77378641D01*
X140575328Y-77253792D01*
X140583200Y-77247139D01*
X140734052Y-77096812D01*
X140740730Y-77088965D01*
X140865003Y-76916020D01*
X140870313Y-76907183D01*
X140964670Y-76716267D01*
X140968469Y-76706672D01*
X141030377Y-76502910D01*
X141032555Y-76492837D01*
X141033986Y-76481962D01*
X141031775Y-76467778D01*
X141018617Y-76464000D01*
X139572000Y-76464000D01*
X139503879Y-76443998D01*
X139457386Y-76390342D01*
X139446000Y-76338000D01*
X139446000Y-76082000D01*
X139466002Y-76013879D01*
X139519658Y-75967386D01*
X139572000Y-75956000D01*
X141018344Y-75956000D01*
X141031875Y-75952027D01*
X141033180Y-75942947D01*
X140991214Y-75775875D01*
X140987894Y-75766124D01*
X140902972Y-75570814D01*
X140898105Y-75561739D01*
X140782426Y-75382926D01*
X140776136Y-75374757D01*
X140632806Y-75217240D01*
X140625273Y-75210215D01*
X140458139Y-75078222D01*
X140449556Y-75072520D01*
X140412602Y-75052120D01*
X140362631Y-75001687D01*
X140347859Y-74932245D01*
X140372975Y-74865839D01*
X140400327Y-74839232D01*
X140437515Y-74812706D01*
X140579860Y-74711173D01*
X140738096Y-74553489D01*
X140742661Y-74547137D01*
X140865435Y-74376277D01*
X140868453Y-74372077D01*
X140873206Y-74362461D01*
X140965136Y-74176453D01*
X140965137Y-74176451D01*
X140967430Y-74171811D01*
X141032370Y-73958069D01*
X141061529Y-73736590D01*
X141063156Y-73670000D01*
X141044852Y-73447361D01*
X140990431Y-73230702D01*
X140901354Y-73025840D01*
X140780014Y-72838277D01*
X140767439Y-72824457D01*
X140632798Y-72676488D01*
X140601746Y-72612642D01*
X140610141Y-72542143D01*
X140655317Y-72487375D01*
X140681761Y-72473706D01*
X140788297Y-72433767D01*
X140796705Y-72430615D01*
X140913261Y-72343261D01*
X141000615Y-72226705D01*
X141051745Y-72090316D01*
X141058500Y-72028134D01*
X141058500Y-70231866D01*
X141051745Y-70169684D01*
X141000615Y-70033295D01*
X140919501Y-69925065D01*
X140894653Y-69858559D01*
X140909706Y-69789176D01*
X140959880Y-69738946D01*
X141020327Y-69723500D01*
X147815501Y-69723500D01*
X147883622Y-69743502D01*
G37*
%TD.AperFunction*%
%TD*%
M02*
